<?xml version="1.0" standalone="no"?>
<!DOCTYPE svg PUBLIC "-//W3C//DTD SVG 1.1//EN" "http://www.w3.org/Graphics/SVG/1.1/DTD/svg11.dtd" >
<svg xmlns="http://www.w3.org/2000/svg">
<metadata></metadata>
<defs>
<font id="interstate-regularcompresseRg" horiz-adv-x="714" >
<font-face units-per-em="2048" ascent="1638" descent="-410" />
<missing-glyph horiz-adv-x="378" />
<glyph horiz-adv-x="2048" />
<glyph horiz-adv-x="2048" />
<glyph unicode="&#xd;" horiz-adv-x="1024" />
<glyph unicode=" "  horiz-adv-x="378" />
<glyph unicode="&#x09;" horiz-adv-x="378" />
<glyph unicode="&#xa0;" horiz-adv-x="378" />
<glyph unicode="!" horiz-adv-x="421" d="M94 96q0 -51 33 -85t84 -34q53 0 86 34t33 85t-33 85t-86 34q-51 0 -84 -34t-33 -85zM119 729l33 -356h118l33 356v705h-184v-705z" />
<glyph unicode="&#x22;" horiz-adv-x="835" d="M121 1434l47 -670h117l47 670h-211zM504 1434l47 -670h117l47 670h-211z" />
<glyph unicode="#" horiz-adv-x="921" d="M61 328h134v-328h172v328h188v-328h172v328h133v166h-133v446h133v166h-133v328h-172v-328h-188v328h-172v-328h-134v-166h134v-446h-134v-166zM367 494v446h188v-446h-188z" />
<glyph unicode="$" horiz-adv-x="681" d="M45 348q14 -147 63.5 -227t135.5 -109v-147h178v143q94 27 150.5 111t56.5 207q0 135 -64.5 252.5t-171.5 248.5q-84 104 -120.5 169t-36.5 130q0 133 96 134q49 0 71.5 -38t38.5 -130l176 38q-16 117 -62 194t-138 101v144h-178v-148q-92 -29 -138.5 -110.5 t-46.5 -188.5q0 -123 58.5 -227t144.5 -213q53 -66 90 -115t59.5 -90t33 -81t10.5 -87q0 -70 -26 -100.5t-79 -30.5q-25 0 -45 8.5t-34.5 31t-26 61t-17.5 98.5z" />
<glyph unicode="%" horiz-adv-x="1437" d="M76 1008q0 -98 11 -180.5t38 -140.5t73 -91t117 -33q70 0 117 33t76 92.5t40 142.5t11 181t-11 180t-38 140.5t-74 91t-117 32.5q-72 0 -117.5 -32.5t-74.5 -92t-40 -142.5t-11 -181zM236 1012q0 152 13 224.5t66 72.5t68.5 -74.5t15.5 -226.5t-13 -224.5t-67 -72.5 q-53 0 -68 74.5t-15 226.5zM303 0h162l670 1434h-162zM879 422q0 -98 11 -180t37.5 -140.5t73 -91.5t117.5 -33q70 0 117 33t75.5 92.5t40 142.5t11.5 181t-11.5 180t-38 140.5t-73.5 91t-117 32.5q-72 0 -118 -32.5t-74.5 -92t-39.5 -142.5t-11 -181zM1038 426 q0 152 13.5 224.5t66.5 72.5t68.5 -74.5t15.5 -226.5t-13 -224.5t-67 -72.5q-53 0 -68.5 74.5t-15.5 226.5z" />
<glyph unicode="&#x26;" horiz-adv-x="727" d="M49 348q0 -180 56.5 -275.5t181.5 -95.5q66 0 112.5 34t87.5 110l45 -121h175l-134 354q45 164 101 414l-148 39q-12 -59 -22 -111.5t-21 -99.5l-153 410q-23 57 -35 100t-12 88q0 43 17 67.5t56 24.5q35 0 55.5 -27.5t47.5 -107.5l162 82q-35 106 -91.5 164.5 t-162.5 58.5q-121 0 -188.5 -71.5t-67.5 -192.5q0 -59 17 -118.5t48 -139.5l47 -125q-84 -100 -129 -221t-45 -240zM227 367q0 68 15.5 137t46.5 133l125 -326q-16 -51 -28.5 -82.5t-25 -49t-25.5 -23.5t-28 -6q-43 0 -61.5 52t-18.5 165z" />
<glyph unicode="'" horiz-adv-x="452" d="M121 1434l47 -670h117l47 670h-211z" />
<glyph unicode="(" horiz-adv-x="512" d="M72 618q0 -246 68.5 -449.5t207.5 -393.5l105 71q-104 166 -150.5 356.5t-46.5 422.5q0 223 46 413.5t151 356.5l-105 71q-139 -190 -207.5 -394t-68.5 -454z" />
<glyph unicode=")" horiz-adv-x="512" d="M59 -156l105 -71q139 190 207.5 394t68.5 454q0 246 -68.5 449.5t-207.5 393.5l-105 -71q104 -166 150.5 -357.5t46.5 -421.5q0 -223 -46 -413.5t-151 -356.5z" />
<glyph unicode="*" horiz-adv-x="675" d="M55 1071l62 -104l186 139l-29 -229h123l-28 229l186 -139l61 104l-210 90l210 90l-61 105l-186 -142l28 230h-123l29 -230l-186 142l-62 -105l211 -92z" />
<glyph unicode="+" horiz-adv-x="694" d="M43 618h217v-256h174v256h217v173h-217v256h-174v-256h-217v-173z" />
<glyph unicode="," horiz-adv-x="413" d="M88 -205h117l114 416h-206z" />
<glyph unicode="-" horiz-adv-x="507" d="M70 659h368v181h-368v-181z" />
<glyph unicode="." horiz-adv-x="413" d="M92 98q0 -51 34 -86t85 -35q53 0 87 35t34 86t-34 86t-87 35q-51 0 -85 -34.5t-34 -86.5z" />
<glyph unicode="/" horiz-adv-x="563" d="M-18 -184h170l430 1802h-170z" />
<glyph unicode="0" horiz-adv-x="741" d="M70 713q0 -176 13 -313.5t46 -230.5t90 -142.5t148 -49.5q92 0 151.5 50.5t93 145.5t47 233.5t13.5 314.5q0 172 -13.5 308t-47 231.5t-92 145.5t-150.5 50q-90 0 -148.5 -50t-92.5 -145.5t-46 -233.5t-12 -314zM256 723q0 166 5 272.5t18.5 169t35 86t52.5 23.5 t53 -23.5t36.5 -86t21.5 -172t7 -281.5q0 -170 -6 -277.5t-19.5 -168t-35 -83t-51.5 -22.5q-31 0 -53.5 22.5t-37 85t-20.5 172t-6 283.5z" />
<glyph unicode="1" horiz-adv-x="487" d="M35 1163h149v-1163h185v1434h-154q-16 -72 -56 -107t-124 -45v-119z" />
<glyph unicode="2" horiz-adv-x="679" d="M59 0h555v174h-362q2 74 13 136.5t34 123t59.5 121.5t92.5 133q86 113 123.5 213t37.5 207q0 74 -14 137.5t-45 110.5t-81 73.5t-122 26.5q-78 0 -130 -29.5t-85 -80t-49 -120t-23 -149.5l181 -24q12 125 32.5 175t69.5 50q47 0 64.5 -42t17.5 -134q0 -78 -23.5 -150.5 t-85.5 -150.5q-70 -88 -116.5 -164t-76.5 -165t-45 -200.5t-22 -271.5z" />
<glyph unicode="3" horiz-adv-x="712" d="M63 344q4 -74 20.5 -140.5t49.5 -116.5t85 -80t128 -30q141 0 218 118t77 327q0 98 -13.5 161.5t-37 102.5t-56 60.5t-69.5 33.5q80 29 122 106t42 236q0 74 -17.5 134.5t-51.5 105.5t-84 69.5t-118 24.5q-76 0 -127 -27.5t-84.5 -74.5t-53 -113.5t-27.5 -142.5l178 -25 q14 100 35.5 151.5t74.5 51.5t71.5 -40t18.5 -120q0 -76 -7 -126t-23.5 -80.5t-47 -44t-75.5 -13.5h-45v-172h39q53 0 87 -13.5t52 -45t25.5 -84t7.5 -131.5q0 -119 -22.5 -183.5t-80.5 -64.5q-59 0 -79.5 55t-28.5 156z" />
<glyph unicode="4" horiz-adv-x="698" d="M29 373h395v-373h158v369h86v157h-86v908h-152l-401 -942v-119zM207 524q18 39 38.5 86t39.5 95l30 79q12 33 28.5 79t34 94.5t32 91t22.5 69.5q-2 -25 -3 -59.5t-2 -72.5t-2 -78t-1 -77v-305h-92q-37 0 -66.5 -1t-58.5 -1z" />
<glyph unicode="5" horiz-adv-x="722" d="M78 324q6 -72 22.5 -134.5t48 -109.5t81 -75t118.5 -28q84 0 141.5 37t92 103.5t49 160.5t14.5 209q0 236 -57.5 359t-192.5 123q-47 0 -79.5 -16.5t-55.5 -43.5l16 351h342v174h-505l-29 -746l139 -16q20 53 50 83.5t75 30.5q70 0 90.5 -81.5t20.5 -223.5q0 -76 -2 -135 t-12.5 -101t-30 -64.5t-54.5 -22.5q-57 0 -73.5 53t-26.5 137z" />
<glyph unicode="6" horiz-adv-x="712" d="M68 469q0 -244 71.5 -368t212.5 -124q78 0 136.5 35t96.5 95.5t57.5 144.5t19.5 182q0 86 -16.5 165t-48.5 139.5t-81 97t-117 36.5q-94 0 -145 -88q20 162 104 306.5t220 230.5l-107 145q-84 -61 -157.5 -144t-128 -200.5t-86 -277.5t-31.5 -375zM242 416 q0 125 26.5 202.5t93.5 77.5q31 0 53.5 -22.5t37 -59t20.5 -85t6 -99.5q0 -127 -28.5 -201.5t-92.5 -74.5q-53 0 -84.5 68.5t-31.5 193.5z" />
<glyph unicode="7" horiz-adv-x="692" d="M39 1260h403q-90 -147 -142 -307t-79.5 -323t-36 -323t-8.5 -307h184q0 199 7.5 367t34 318.5t79 292t142.5 288.5v168h-584v-174z" />
<glyph unicode="8" horiz-adv-x="700" d="M66 426q0 -223 75.5 -336t204.5 -113q135 0 212 111t77 340q0 143 -36 227t-97 133q53 45 89 113t36 178q0 74 -16.5 141.5t-51.5 120t-87 84t-122 31.5q-66 0 -118 -29.5t-86.5 -82t-53 -121t-18.5 -146.5q0 -111 36.5 -181.5t88.5 -111.5q-59 -51 -96 -132t-37 -226z M246 430q0 268 102 268q107 0 107 -272q0 -143 -27 -205.5t-76 -62.5q-53 0 -79.5 65.5t-26.5 206.5zM254 1079q0 104 25.5 150.5t70.5 46.5t70.5 -49.5t25.5 -153.5q0 -82 -24.5 -140.5t-71.5 -58.5t-71.5 60.5t-24.5 144.5z" />
<glyph unicode="9" horiz-adv-x="712" d="M51 999q0 -86 16.5 -164.5t48 -139t81 -97.5t116.5 -37q94 0 146 88q-20 -162 -104.5 -306t-219.5 -230l107 -146q84 61 157.5 144.5t128 201t86 277.5t31.5 375q0 244 -71.5 367.5t-213.5 123.5q-78 0 -136 -35t-96 -95t-57.5 -144t-19.5 -183zM233 1004q0 127 29 201.5 t92 74.5q53 0 85 -68.5t32 -193.5t-26.5 -203t-94.5 -78q-31 0 -53.5 22.5t-36.5 59.5t-20.5 85t-6.5 100z" />
<glyph unicode=":" horiz-adv-x="413" d="M92 98q0 -51 34 -86t85 -35q53 0 87 35t34 86t-34 86t-87 35q-51 0 -85 -34.5t-34 -86.5zM92 977q0 -51 34 -86t85 -35q53 0 87 35t34 86t-34 86t-87 35q-51 0 -85 -35t-34 -86z" />
<glyph unicode=";" horiz-adv-x="413" d="M88 -205h117l114 416h-206zM92 977q0 -51 34 -86t85 -35q53 0 87 35t34 86t-34 86t-87 35q-51 0 -85 -35t-34 -86z" />
<glyph unicode="&#x3c;" horiz-adv-x="532" d="M47 621l422 -375v229l-274 232l274 229v227l-422 -375v-167z" />
<glyph unicode="=" horiz-adv-x="808" d="M113 418h583v178h-583v-178zM113 813h583v178h-583v-178z" />
<glyph unicode="&#x3e;" horiz-adv-x="532" d="M63 246l422 375v167l-422 375v-229l275 -232l-275 -229v-227z" />
<glyph unicode="?" horiz-adv-x="655" d="M23 1178l153 -74q29 92 58.5 133t82.5 41q57 0 83 -44t26 -120q0 -37 -4 -65.5t-14.5 -56t-29 -57.5t-44.5 -67q-43 -57 -68.5 -108t-40 -107.5t-19.5 -123t-5 -156.5h168q0 80 4 136t16 101t33.5 85t58.5 89q35 47 58.5 87t39 80t21.5 85.5t6 100.5q0 141 -71.5 230 t-212.5 89q-119 0 -193 -78t-106 -200zM168 96q0 -51 32.5 -85t84.5 -34q53 0 85.5 34t32.5 85t-32.5 85t-85.5 34q-51 0 -84 -34t-33 -85z" />
<glyph unicode="@" horiz-adv-x="989" d="M66 717q0 -174 28.5 -311.5t83.5 -232.5t135 -145.5t183 -50.5q59 0 114.5 21.5t98.5 56.5l-47 80q-33 -27 -74 -43t-86 -16q-170 0 -251 169t-81 474t80 472t246 167q152 0 237.5 -158t85.5 -461q0 -96 -5 -158.5t-15.5 -99.5t-25.5 -52t-36 -15q-72 0 -71 127v407 q0 115 -41 158t-119 43q-49 0 -96.5 -23.5t-83.5 -64.5l53 -82q63 55 108 55q41 0 53.5 -22.5t12.5 -75.5v-117q-18 14 -36.5 20.5t-47.5 6.5q-80 0 -123 -65.5t-43 -202.5q0 -266 152 -267q47 0 79.5 19.5t67.5 56.5q23 -33 53.5 -52.5t83.5 -19.5q43 0 78 19.5t58.5 69 t36 130t12.5 203.5q0 160 -29 292t-83 227.5t-134 147.5t-182 52t-182.5 -50t-135.5 -145.5t-83.5 -232.5t-28.5 -311zM418 580q0 80 14 117.5t55 37.5q25 0 37.5 -6t28.5 -16v-250q-31 -41 -70 -41q-66 0 -65 158z" />
<glyph unicode="A" horiz-adv-x="735" d="M35 0h186l45 344h197l47 -344h190l-231 1434h-201zM289 522l51 398q6 53 12 101t10 99q4 -51 10.5 -99t12.5 -99l53 -400h-149z" />
<glyph unicode="B" horiz-adv-x="763" d="M113 0h235q174 0 260 110.5t86 309.5q0 139 -47 213t-125 112q78 41 119 114t41 192q0 199 -87 291t-247 92h-235v-1434zM293 174v488h53q84 0 124 -55.5t40 -186.5q0 -129 -35 -187.5t-121 -58.5h-61zM293 825v435h63q68 0 105 -47t37 -164q0 -127 -39 -175.5 t-105 -48.5h-61z" />
<glyph unicode="C" horiz-adv-x="733" d="M74 713q0 -184 14 -321.5t49 -229.5t94.5 -138.5t149.5 -46.5q80 0 133 30t86 83t50.5 127t27.5 160l-180 24q-16 -133 -38 -186t-69 -53q-35 0 -59.5 23.5t-40 86t-22.5 171t-7 278.5q0 172 7 280.5t21.5 168t37 81t55.5 21.5q51 0 74.5 -62.5t31.5 -185.5l185 25 q-4 88 -21.5 162.5t-52.5 129t-88 85t-127 30.5q-94 0 -154.5 -47t-95.5 -140t-48 -232.5t-13 -323.5z" />
<glyph unicode="D" horiz-adv-x="776" d="M113 0h227q190 0 277.5 178t87.5 549q0 166 -15.5 298t-55.5 222t-106.5 138.5t-167.5 48.5h-247v-1434zM297 176v1079h53q43 0 74 -24.5t51.5 -86t30.5 -162.5t10 -255q0 -162 -11 -268.5t-33.5 -169t-54.5 -88t-71 -25.5h-49z" />
<glyph unicode="E" horiz-adv-x="681" d="M113 0h524v180h-340v486h244v180h-244v407h315v181h-499v-1434z" />
<glyph unicode="F" horiz-adv-x="671" d="M113 0h184v666h244v180h-244v407h332v181h-516v-1434z" />
<glyph unicode="G" horiz-adv-x="761" d="M74 717q0 -168 12 -304.5t46 -233.5t95.5 -149.5t159.5 -52.5q88 0 146.5 37t92 98.5t48 140.5t14.5 163v327h-303v-178h123v-162q0 -133 -28.5 -188t-88.5 -55q-39 0 -63.5 30.5t-39 98t-20.5 173t-6 255.5q0 170 6 278.5t20.5 170t38 84t58.5 22.5q51 0 73.5 -62.5 t30.5 -185.5l185 25q-4 90 -22.5 164.5t-53.5 129t-87 84t-126 29.5q-94 0 -154.5 -47t-95.5 -140t-48 -231.5t-13 -320.5z" />
<glyph unicode="H" horiz-adv-x="829" d="M113 0h184v678h233v-678h185v1434h-185v-576h-233v576h-184v-1434z" />
<glyph unicode="I" horiz-adv-x="421" d="M119 0h184v1434h-184v-1434z" />
<glyph unicode="J" horiz-adv-x="696" d="M29 342q6 -76 21.5 -142.5t47 -115.5t83.5 -78t130 -29q133 0 205 91t72 294v1072h-185v-1074q0 -111 -20.5 -154.5t-67.5 -43.5q-49 0 -75.5 48t-38.5 171z" />
<glyph unicode="K" horiz-adv-x="722" d="M113 0h180v578l45 112l164 -690h188l-225 901l221 533h-190l-119 -326q-8 -23 -20.5 -56.5t-25 -69.5t-23.5 -70.5t-17 -57.5q0 47 1 112.5t1 125.5v342h-180v-1434z" />
<glyph unicode="L" horiz-adv-x="624" d="M113 0h471v180h-287v1254h-184v-1434z" />
<glyph unicode="M" horiz-adv-x="972" d="M113 0h168v438q0 131 -4.5 272.5t-4.5 252.5q6 -39 18.5 -101.5l26 -130t27.5 -134.5t25 -114l116 -526l119 526q12 51 25.5 117t27 132.5t25.5 128t18 102.5q0 -123 -4 -255.5t-4 -269.5v-438h168v1434h-198l-113 -529q-8 -39 -17.5 -88t-18.5 -100t-16.5 -101.5 t-11.5 -93.5q-4 43 -11 93.5t-16 100.5t-18.5 98t-17.5 89l-111 531h-198v-1434z" />
<glyph unicode="N" horiz-adv-x="827" d="M113 0h174v553q0 39 -1 94t-1 115q0 61 -1 117.5t-1 99.5q12 -43 28.5 -101.5t33.5 -120t35.5 -120.5t33.5 -105l170 -532h131v1434h-174v-465v-76q0 -45 1 -96.5t1 -102.5v-90q-10 43 -24.5 94.5t-30 101.5t-29 95t-23.5 76l-149 463h-174v-1434z" />
<glyph unicode="O" horiz-adv-x="770" d="M74 713q0 -176 13 -313.5t47 -230.5t93.5 -142.5t153.5 -49.5q98 0 159.5 50.5t96.5 145.5t47 233.5t12 314.5q0 172 -13 308t-48 231.5t-95.5 145.5t-156.5 50t-155.5 -50t-94.5 -145.5t-47 -233.5t-12 -314zM262 723q0 162 6 268.5t19.5 169t36 87t57.5 24.5 q33 0 57.5 -25.5t40 -89t22.5 -172t7 -274.5q0 -162 -6 -268.5t-20.5 -169t-38 -87t-56.5 -24.5q-35 0 -58.5 25.5t-38 89t-21.5 172t-7 274.5z" />
<glyph unicode="P" horiz-adv-x="737" d="M113 0h184v618h70q66 0 124 25t103 75t70.5 128.5t25.5 189.5t-24.5 187.5t-67.5 123t-100.5 67t-122.5 20.5h-262v-1434zM297 793v467h76q68 0 99.5 -54.5t31.5 -179.5q0 -123 -38 -178t-104 -55h-65z" />
<glyph unicode="Q" horiz-adv-x="770" d="M74 713q0 -176 13 -313.5t47 -230.5t93.5 -142.5t153.5 -49.5q96 0 162 62l51 -62l92 84l-74 78q45 96 64.5 242.5t19.5 339.5q0 172 -13 308t-48 231.5t-95.5 145.5t-156.5 50t-155.5 -50t-94.5 -145.5t-47 -233.5t-12 -314zM262 723q0 162 6 268.5t19.5 169t36 87 t57.5 24.5q33 0 57.5 -25.5t40 -89t22.5 -172t7 -274.5q0 -162 -4 -266.5t-15 -165.5l-45 55l-86 -78l80 -92q-10 -8 -22.5 -10t-28.5 -2q-35 0 -58.5 26.5t-38 93t-21.5 176t-7 275.5z" />
<glyph unicode="R" horiz-adv-x="774" d="M113 0h184v645h84l135 -645h191l-152 698q66 47 100.5 133.5t34.5 215.5q0 113 -25.5 186.5t-68.5 118.5t-100.5 63.5t-122.5 18.5h-260v-1434zM297 813v447h76q68 0 99.5 -49.5t31.5 -174.5q0 -123 -38 -173t-104 -50h-65z" />
<glyph unicode="S" horiz-adv-x="702" d="M55 348q35 -371 301 -371q68 0 120 26t88 71t55.5 107t19.5 134q0 137 -64.5 259t-171.5 253q-43 51 -71.5 92.5t-46 77t-25.5 69.5t-8 71q0 133 90 133q45 0 69.5 -43t41.5 -135l176 38q-10 70 -30.5 130.5t-54.5 103.5t-84 67.5t-120 24.5q-68 0 -120 -25.5t-86 -68.5 t-51 -102.5t-17 -126.5q0 -123 58 -232.5t144 -218.5q53 -66 89 -115t57.5 -92t31 -84t9.5 -92q0 -131 -99 -131q-47 0 -77.5 44t-45.5 165z" />
<glyph unicode="T" horiz-adv-x="659" d="M35 1253h203v-1253h184v1253h203v181h-590v-181z" />
<glyph unicode="U" horiz-adv-x="819" d="M109 334q0 -166 79.5 -261.5t221.5 -95.5q154 0 227.5 95.5t73.5 273.5v1088h-185v-1092q0 -98 -25.5 -139t-88.5 -41q-59 0 -89 42t-30 140v1090h-184v-1100z" />
<glyph unicode="V" horiz-adv-x="731" d="M35 1434l239 -1434h181l241 1434h-194l-111 -899q-6 -53 -11 -101.5t-9 -99.5q-4 51 -9.5 99t-11.5 99l-121 902h-194z" />
<glyph unicode="W" horiz-adv-x="937" d="M35 1434l184 -1434h133l72 483q4 33 10 81t12.5 100.5t12.5 102.5t10 87q4 -37 10 -89t12.5 -105.5t12.5 -100.5t10 -78l72 -481h133l184 1434h-172l-65 -621q-4 -31 -7.5 -69.5t-7.5 -82t-8 -86.5t-6 -77q-4 35 -7 76.5t-7.5 84.5t-8.5 83t-8 71l-71 621h-132l-71 -621 q-4 -31 -8.5 -71t-8.5 -83t-8 -85t-6 -76q-4 35 -7 77.5t-7 86t-8.5 82t-6.5 69.5l-65 621h-172z" />
<glyph unicode="X" horiz-adv-x="679" d="M29 0h186l66 252q18 70 32.5 136.5t24.5 121.5q10 -57 24.5 -122.5t30.5 -133.5l66 -254h192l-223 748l209 686h-184l-60 -226q-10 -43 -25.5 -107.5t-25.5 -129.5q-10 66 -23.5 129t-25.5 110l-57 224h-193l209 -699z" />
<glyph unicode="Y" horiz-adv-x="733" d="M20 1434l265 -813v-621h184v631l244 803h-197l-84 -363q-6 -25 -13 -60.5t-15.5 -74.5t-14.5 -77t-10 -68q-4 31 -11.5 68.5t-15.5 75.5t-16 73.5t-14 62.5l-95 363h-207z" />
<glyph unicode="Z" horiz-adv-x="643" d="M66 0h512v174h-199q-45 0 -82 -1t-61 -1q6 18 16 47t20.5 60.5l21.5 64.5t19 62l265 860v168h-488v-174h164q45 0 87 1t67 1l-16.5 -44t-21 -60t-20.5 -63.5t-18 -56.5l-266 -870v-168z" />
<glyph unicode="[" horiz-adv-x="552" d="M113 -190h354v161h-178v1301h178v162h-354v-1624z" />
<glyph unicode="\" horiz-adv-x="563" d="M-18 1618l430 -1802h170l-430 1802h-170z" />
<glyph unicode="]" horiz-adv-x="552" d="M86 -29v-161h354v1624h-354v-162h178v-1301h-178z" />
<glyph unicode="^" horiz-adv-x="696" d="M47 782h197l102 432l105 -432h198l-223 652h-156z" />
<glyph unicode="_" horiz-adv-x="501" d="M0 -168v-164h502v164h-502z" />
<glyph unicode="`" horiz-adv-x="675" d="M119 1540l246 -328h124l-151 328h-219z" />
<glyph unicode="a" horiz-adv-x="677" d="M49 332q0 -174 60.5 -264.5t164.5 -90.5q49 0 83 18.5t65 55.5v-51h172v811q0 158 -62.5 222.5t-181.5 64.5q-74 0 -140.5 -36t-119.5 -93l98 -123q39 39 68 59.5t68 20.5q51 0 74.5 -28t23.5 -99v-144q-23 16 -53.5 26.5t-73.5 10.5q-121 0 -183.5 -93t-62.5 -267z M217 336q0 190 102 190q37 0 58.5 -6t44.5 -20v-310q-18 -23 -45 -35t-51 -12q-59 0 -84 49.5t-25 143.5z" />
<glyph unicode="b" d="M90 0h172v47q29 -31 66 -50.5t78 -19.5q129 0 183 143.5t54 424.5q0 125 -9 227t-35 174t-72 112t-119 40q-49 0 -85 -21.5t-61 -52.5v469l-172 -94v-1399zM262 201v682q20 20 46 33.5t57 13.5q66 0 85 -103.5t19 -291.5q0 -203 -20.5 -294t-77.5 -91q-35 0 -60.5 14 t-48.5 37z" />
<glyph unicode="c" horiz-adv-x="651" d="M63 530q0 -150 19.5 -254t56.5 -170.5t90.5 -97.5t120.5 -31q102 0 162.5 73t89.5 204l-147 61q-20 -84 -42 -123.5t-61 -39.5q-37 0 -59.5 26.5t-34.5 75.5t-16 119.5t-4 161.5q0 82 4 153.5t15 123.5t33.5 82t59.5 30q43 0 61.5 -51.5t30.5 -122.5l158 63 q-8 55 -25.5 106.5t-45 91.5t-69.5 63.5t-100 23.5q-156 0 -226.5 -133.5t-70.5 -434.5z" />
<glyph unicode="d" d="M70 530q0 -125 9 -227t34.5 -174t72.5 -112t121 -40q47 0 83 21.5t61 52.5v-51h174v1493l-174 -94v-371q-29 31 -65 50.5t-77 19.5q-131 0 -185 -143.5t-54 -424.5zM246 541q0 203 18.5 294t77.5 91q37 0 62.5 -14.5t46.5 -37.5v-681q-18 -20 -44 -34t-57 -14 q-68 0 -86 103.5t-18 292.5z" />
<glyph unicode="e" horiz-adv-x="673" d="M63 530q0 -115 13.5 -215t45.5 -176t85 -119t135 -43q57 0 98 17.5t72 48.5t53.5 74t40.5 96l-143 68q-29 -70 -49.5 -99.5t-63.5 -29.5q-59 0 -89 77.5t-34 247.5h387v51q0 274 -66.5 422t-201.5 148q-152 0 -217.5 -147.5t-65.5 -420.5zM229 635q6 152 31 225.5 t78 73.5q27 0 46 -23.5t32.5 -63.5t20.5 -94.5t9 -117.5h-217z" />
<glyph unicode="f" horiz-adv-x="446" d="M35 903h84v-903h172v903h125v172h-125v148q0 90 76 90q46 -1 77 -13v170q-29 10 -53 13.5t-67 3.5q-94 0 -149.5 -62.5t-55.5 -191.5v-158h-84v-172z" />
<glyph unicode="g" d="M70 530q0 -125 9 -227t34.5 -174t72.5 -112t121 -40q47 0 83 21.5t61 52.5v-18q0 -63 -11.5 -109.5t-39 -79t-74.5 -56.5t-119 -40l47 -143q100 18 171 55t115 95.5t64.5 140t20.5 192.5v987h-174v-47q-29 31 -65 50.5t-77 19.5q-131 0 -185 -143.5t-54 -424.5zM246 541 q0 203 18.5 294t77.5 91q37 0 62.5 -14.5t46.5 -37.5v-681q-18 -20 -44 -34t-57 -14q-68 0 -86 103.5t-18 292.5z" />
<glyph unicode="h" horiz-adv-x="698" d="M90 0h172v881q49 47 111 47q41 0 55 -35t14 -105v-788h172v791q0 168 -41 237.5t-143 69.5q-59 0 -97 -21.5t-71 -54.5v471l-172 -94v-1399z" />
<glyph unicode="i" horiz-adv-x="370" d="M76 1370q0 -45 33.5 -80t76.5 -35t76 35t33 80q0 47 -33 82t-76 35t-76.5 -35t-33.5 -82zM98 0h174v1075h-174v-1075z" />
<glyph unicode="j" horiz-adv-x="370" d="M-76 -246l35 -149q74 12 132.5 34.5t98 67.5t61 115.5t21.5 179.5v1073h-174v-1091q0 -59 -8 -98.5t-28.5 -65t-53.5 -39.5t-84 -27zM76 1370q0 -45 33.5 -80t76.5 -35t76 35t33 80q0 47 -33 82t-76 35t-76.5 -35t-33.5 -82z" />
<glyph unicode="k" horiz-adv-x="675" d="M90 0h172v360l68 138l137 -498h182l-207 694l193 381h-186l-60 -135q-12 -27 -30.5 -71t-38 -91t-38 -90t-26.5 -67q2 29 3 70.5t2 86.5t1 90v82v543l-172 -94v-1399z" />
<glyph unicode="l" horiz-adv-x="370" d="M98 0h174v1493l-174 -94v-1399z" />
<glyph unicode="m" horiz-adv-x="1030" d="M90 0h172v881q23 23 49.5 35t57.5 12q41 0 52 -32t11 -101v-795h172v881q25 23 51.5 35t57.5 12q41 0 51 -32t10 -101v-795h174v799q0 162 -40 230.5t-140 68.5q-49 0 -97 -22.5t-91 -57.5q-25 41 -60 60.5t-96 19.5q-57 0 -96 -23.5t-66 -52.5v53h-172v-1075z" />
<glyph unicode="n" horiz-adv-x="698" d="M90 0h172v881q49 47 111 47q41 0 55 -35t14 -105v-788h172v791q0 168 -41 237.5t-143 69.5q-59 0 -97 -21.5t-71 -54.5v53h-172v-1075z" />
<glyph unicode="o" d="M63 532q0 -117 13.5 -218t46.5 -176t89 -118t140 -43q90 0 148.5 44.5t92.5 120t46 179t12 220.5q0 115 -13 216t-46 177t-89.5 120t-142.5 44q-96 0 -153 -46t-90 -123t-43.5 -180.5t-10.5 -216.5zM238 541q0 72 3 141.5t15 124.5t35.5 89t64.5 34q39 0 62.5 -33t37 -88 t17.5 -126.5t4 -147.5q0 -72 -3 -141.5t-15.5 -125t-36 -89.5t-64.5 -34q-43 0 -67.5 34t-36.5 89.5t-14 127t-2 145.5z" />
<glyph unicode="p" d="M90 -395l172 98v344q29 -31 66 -50.5t78 -19.5q129 0 183 143.5t54 424.5q0 125 -9 227t-35 174t-72 112t-119 40q-49 0 -85 -21.5t-61 -52.5v51h-172v-1470zM262 201v682q20 20 46 33.5t57 13.5q66 0 85 -103.5t19 -291.5q0 -203 -20.5 -294t-77.5 -91q-35 0 -60.5 14 t-48.5 37z" />
<glyph unicode="q" d="M70 530q0 -125 9 -227t34.5 -174t72.5 -112t121 -40q47 0 83 21.5t61 52.5v-446l174 94v1376h-174v-47q-29 31 -65 50.5t-77 19.5q-131 0 -185 -143.5t-54 -424.5zM246 541q0 203 18.5 294t77.5 91q37 0 62.5 -14.5t46.5 -37.5v-681q-18 -20 -44 -34t-57 -14 q-68 0 -86 103.5t-18 292.5z" />
<glyph unicode="r" horiz-adv-x="522" d="M90 0h172v870q18 23 42 35.5t54 12.5q39 0 63.5 -10.5t47.5 -30.5l35 194q-14 12 -34.5 19.5t-61.5 7.5q-45 0 -81 -20.5t-65 -55.5v53h-172v-1075z" />
<glyph unicode="s" horiz-adv-x="620" d="M49 238q25 -111 83 -186t169 -75q117 0 192.5 75t75.5 202q0 55 -10 103.5t-34.5 93.5t-68.5 91t-112 99q-35 31 -58.5 53.5t-38 44t-20.5 45t-6 52.5q0 45 22.5 71.5t57.5 26.5q37 0 60.5 -38t37.5 -93l156 61q-29 104 -85 169t-161 65q-117 0 -183.5 -77t-66.5 -196 q0 -53 12.5 -97t39 -87t69.5 -87t107 -95q35 -29 58.5 -53.5t36.5 -49t19.5 -52.5t6.5 -60q0 -45 -28 -74t-69 -29t-66.5 44t-41.5 114z" />
<glyph unicode="t" horiz-adv-x="497" d="M29 903h84v-676q0 -123 41 -186.5t139 -63.5q47 0 78.5 10.5t60.5 28.5l19 172q-29 -18 -51.5 -27t-53.5 -9q-59 0 -59 96v655h151v172h-151v418l-174 -94v-324h-84v-172z" />
<glyph unicode="u" horiz-adv-x="698" d="M84 285q0 -168 41 -238t143 -70q59 0 97 21.5t71 54.5v-53h172v1075h-172v-880q-49 -47 -110 -48q-41 0 -55.5 35t-14.5 105v788h-172v-790z" />
<glyph unicode="v" horiz-adv-x="649" d="M29 1075l209 -1075h174l209 1075h-175l-67 -424q-6 -45 -14.5 -102t-16.5 -115.5t-14 -112t-8 -90.5q-4 37 -10.5 89.5t-13.5 110.5t-15 116.5t-17 103.5l-65 424h-176z" />
<glyph unicode="w" horiz-adv-x="878" d="M37 1075l133 -1075h162l45 317q8 57 17 126t16.5 135.5t14.5 127t13 103.5q4 -43 11.5 -103.5t15.5 -127t16 -134t17 -127.5l45 -317h168l131 1075h-162l-18 -233q-4 -47 -9.5 -120t-10.5 -150.5t-10 -149.5t-7 -115q-4 43 -13.5 115t-18.5 150.5t-18.5 151.5t-15.5 118 l-33 233h-174l-30 -233q-6 -45 -15.5 -118t-20 -151.5t-19.5 -150.5t-13 -115q-2 43 -6 115t-10.5 148.5t-11.5 150.5t-9 121l-16 233h-164z" />
<glyph unicode="x" horiz-adv-x="641" d="M33 0h180l29 113q8 31 17 70.5t20.5 81.5t21.5 85t18 82q16 -78 38 -166t40 -153l29 -113h182l-190 565l170 510h-180l-9 -31q-16 -63 -38.5 -152t-38.5 -167q-8 39 -18.5 82t-22 85t-20.5 81t-17 71l-8 31h-181l168 -514z" />
<glyph unicode="y" horiz-adv-x="669" d="M27 1075l223 -1087l-94 -367h172l313 1454h-176l-74 -424q-8 -49 -17 -107.5t-17.5 -115.5t-15.5 -108.5t-11 -88.5q-4 37 -10.5 89.5t-14.5 109.5t-17 114.5t-18 106.5l-65 424h-178z" />
<glyph unicode="z" horiz-adv-x="600" d="M49 0h486v164h-195h-72q-27 0 -53 -2q16 29 38.5 81t41.5 97l240 586v149h-457v-164h166h69q29 0 56 2q-16 -29 -38 -80t-42 -98l-240 -585v-150z" />
<glyph unicode="{" horiz-adv-x="573" d="M27 532h57q14 0 30.5 -8t31 -28.5t22.5 -56.5t8 -91v-155q0 -104 14.5 -181.5t53.5 -129.5t106 -78.5t176 -28.5v145q-55 10 -89 24.5t-53 41t-25.5 67.5t-6.5 107v135q0 72 -6 125t-23.5 91t-48 63.5t-77.5 41.5q47 16 77.5 41t48 63t23.5 91t6 125v135q0 63 6.5 105.5 t25.5 69t53 40.5t89 25v145q-109 -4 -176 -29.5t-106 -78t-53.5 -129t-14.5 -181.5v-155q0 -55 -8 -91t-22.5 -56.5t-31 -29t-30.5 -8.5h-57v-166z" />
<glyph unicode="|" horiz-adv-x="430" d="M129 -379h172v2017h-172v-2017z" />
<glyph unicode="}" horiz-adv-x="573" d="M47 -80v-145q106 2 175 28.5t108 78.5t53 129t14 182v155q0 55 8.5 91t22.5 56.5t29.5 28.5t31.5 8h58v166h-58q-16 0 -31.5 8.5t-29.5 29t-22.5 56t-8.5 91.5v155q0 104 -14 181t-53 129.5t-107.5 78t-175.5 29.5v-145q55 -10 89 -24.5t53.5 -41t25.5 -68.5t6 -106v-135 q0 -72 6 -125t23.5 -91t48.5 -63.5t78 -42.5q-47 -16 -78 -40.5t-48.5 -62.5t-23.5 -91t-6 -125v-135q0 -66 -6 -107t-25.5 -67.5t-53.5 -41t-89 -24.5z" />
<glyph unicode="~" horiz-adv-x="684" d="M39 649l131 -33q12 47 20.5 75t15.5 43.5t14 19.5t18 4q14 0 26 -11.5t35 -35.5q43 -51 75 -72t79 -21q141 1 190 267l-131 30q-10 -47 -18.5 -74.5t-16.5 -42t-15 -18.5t-18 -4q-20 0 -59 45q-45 51 -75.5 71.5t-78.5 20.5q-74 0 -119.5 -66.5t-72.5 -197.5z" />
<glyph unicode="&#xa1;" horiz-adv-x="421" d="M92 1337q0 -51 33 -84.5t86 -33.5q51 0 84 33.5t33 84.5t-33 85t-84 34q-53 0 -86 -33.5t-33 -85.5zM119 0h184v705l-33 356h-118l-33 -356v-705z" />
<glyph unicode="&#xa2;" horiz-adv-x="651" d="M63 721q0 -246 51.5 -373t145.5 -164v-207h170v205q66 25 107.5 91.5t64.5 170.5l-147 62q-20 -84 -42 -124t-61 -40q-37 0 -59.5 26.5t-34.5 76t-16 120t-4 160.5q0 82 4 153.5t15 124t33.5 82t59.5 29.5q43 0 61.5 -51t30.5 -123l158 64q-14 92 -53 168.5t-117 105.5 v190h-170v-196q-102 -39 -149.5 -171t-47.5 -380z" />
<glyph unicode="&#xa3;" horiz-adv-x="724" d="M76 0h581v168h-399q41 86 68.5 184.5t31.5 235.5h164v157h-170q-8 49 -19 92.5t-24 82.5q-16 47 -26.5 105t-10.5 110q0 66 19.5 111.5t73.5 45.5q53 0 80.5 -47t46.5 -164l174 35q-29 172 -96.5 256t-198.5 84q-70 0 -122 -25.5t-87 -69.5t-52.5 -105.5t-17.5 -133.5 t14.5 -134t32.5 -114q12 -35 21.5 -65.5t15.5 -63.5h-94v-157h106q-4 -133 -32.5 -229.5t-79.5 -192.5v-166z" />
<glyph unicode="&#xa4;" horiz-adv-x="712" d="M70 713q0 -184 14 -321.5t49 -229.5t94.5 -138.5t149.5 -46.5q80 0 133 30t86 83t50.5 127t27.5 160l-174 24q-8 -72 -18.5 -120t-25 -76.5t-31.5 -39.5t-40 -11q-29 0 -51.5 15t-38.5 56t-27.5 112t-15.5 179h276v148h-280v57v57h280v148h-276q4 111 13 180.5t24.5 107 t37 52t48.5 14.5q51 0 78.5 -60.5t38.5 -195.5l178 25q-4 88 -21.5 162.5t-52.5 129t-88 85t-127 30.5q-94 0 -154.5 -47t-95.5 -140t-48 -232.5t-13 -323.5z" />
<glyph unicode="&#xa5;" horiz-adv-x="712" d="M20 1434l261 -834v-176h-170v-166h170v-258h172v258h170v166h-170v186l239 824h-196l-80 -363q-6 -25 -13.5 -60.5t-13.5 -74.5t-12 -77t-8 -68q-4 31 -9.5 68.5t-13.5 75.5t-16 73.5t-15 62.5l-88 363h-207z" />
<glyph unicode="&#xa6;" horiz-adv-x="1122" d="M20 713l285 -221q20 -16 37 -9q16 12 6 39l-37 113h172v-383l-112 39q-29 8 -39 -8q-8 -14 8 -35l221 -285l221 285q16 20 9 35q-10 16 -39 8l-113 -39v383h174l-39 -113q-8 -27 6 -39q16 -8 37 9l285 221l-285 221q-20 16 -37 8q-14 -12 -6 -39l39 -112h-174v391 l113 -39q29 -8 39 8q8 14 -9 35l-221 284l-221 -284q-16 -20 -8 -35q10 -16 39 -8l112 39v-391h-172l37 112q10 27 -6 39q-16 8 -37 -8z" />
<glyph unicode="&#xa7;" horiz-adv-x="747" d="M63 571q0 -80 19.5 -136t53.5 -99t82 -78t106 -72q78 -49 107.5 -97t29.5 -126q0 -63 -20.5 -99t-63.5 -36q-47 0 -70.5 42t-46.5 148l-174 -34q31 -166 96.5 -243t188.5 -77q127 0 195.5 84t68.5 227q0 82 -21.5 141.5t-60.5 106.5q59 61 96 142.5t37 183.5 q0 80 -19.5 136t-54 99t-83 78t-105.5 72q-78 49 -107.5 97t-29.5 126q0 63 20.5 99t65.5 36q47 0 69.5 -42t44.5 -148l175 35q-31 166 -95.5 242.5t-187.5 76.5q-129 0 -197.5 -84t-68.5 -227q0 -82 22.5 -141.5t59.5 -106.5q-57 -61 -94.5 -142t-37.5 -184zM238 590 q0 127 69 211l22.5 -13.5t24.5 -15.5q78 -45 117 -97.5t39 -144.5q0 -125 -70 -213q-10 8 -21 15.5t-24 15.5q-78 45 -117.5 97.5t-39.5 144.5z" />
<glyph unicode="&#xa8;" horiz-adv-x="675" d="M70 1333q0 -47 32.5 -80.5t81.5 -33.5q45 0 78 33.5t33 80.5t-33 80t-78 33q-49 0 -81.5 -33t-32.5 -80zM381 1333q0 -47 32.5 -80.5t80.5 -33.5q47 0 79.5 33.5t32.5 80.5t-32.5 80t-79.5 33t-80 -33t-33 -80z" />
<glyph unicode="&#xa9;" horiz-adv-x="989" d="M66 717q0 -166 27.5 -302t80.5 -233.5t134 -151t186 -53.5q104 0 185 53.5t135 151t82 233.5t28 302t-28 302t-82 233.5t-135 150.5t-185 53t-185.5 -53t-134.5 -150.5t-80.5 -233.5t-27.5 -302zM170 717q0 141 18.5 259t57.5 203t100.5 132t147.5 47t147 -47t101 -132 t58.5 -203t18.5 -259t-18.5 -259t-58.5 -203t-101 -132t-147 -47t-147.5 47t-100.5 132t-57.5 202.5t-18.5 259.5zM309 719q0 -215 41 -315.5t139 -100.5q84 0 122.5 57t54.5 168l-111 27q-10 -86 -23.5 -112.5t-37.5 -26.5q-18 0 -30.5 14t-20 50t-10.5 94.5t-3 146.5 q0 168 12.5 235.5t46.5 67.5q25 0 36.5 -27.5t25.5 -113.5l113 22q-14 109 -50 169.5t-122 60.5q-98 0 -140.5 -102.5t-42.5 -313.5z" />
<glyph unicode="&#xaa;" horiz-adv-x="610" d="M74 846q0 -141 49 -214t135 -73q39 0 64.5 12.5t50.5 38.5v-30h145v645q0 129 -50 180t-149 51q-59 0 -114 -30.5t-99 -77.5l82 -99q31 29 55.5 46.5t55.5 17.5q39 0 56.5 -21.5t17.5 -77.5v-104q-16 10 -40 16.5t-59 6.5q-98 0 -149 -75t-51 -212zM217 846q0 154 78 153 q27 0 44 -5t34 -15v-252q-14 -16 -35 -25.5t-39 -9.5q-45 0 -63.5 40t-18.5 114z" />
<glyph unicode="&#xab;" horiz-adv-x="827" d="M27 537l249 -537h175l-246 539l246 536h-175zM350 537l250 -537h174l-246 539l246 536h-174z" />
<glyph unicode="&#xac;" horiz-adv-x="745" d="M47 633h387l-39 -111q-8 -29 8 -39q14 -8 35 9l287 221l-287 221q-20 16 -35 8q-16 -10 -8 -39l39 -110h-387v-160z" />
<glyph unicode="&#xad;" horiz-adv-x="507" d="M70 659h368v181h-368v-181z" />
<glyph unicode="&#xae;" horiz-adv-x="989" d="M66 717q0 -166 27.5 -302t80.5 -233.5t134 -151t186 -53.5q104 0 185 53.5t135 151t82 233.5t28 302t-28 302t-82 233.5t-135 150.5t-185 53t-185.5 -53t-134.5 -150.5t-80.5 -233.5t-27.5 -302zM170 717q0 141 18.5 259t57.5 203t100.5 132t147.5 47t147 -47t101 -132 t58.5 -203t18.5 -259t-18.5 -259t-58.5 -203t-101 -132t-147 -47t-147.5 47t-100.5 132t-57.5 202.5t-18.5 259.5zM338 332h115v360h18q10 0 18 2l78 -362h121l-88 399q35 29 56.5 75t21.5 116q0 117 -55.5 167t-135.5 50h-149v-807zM453 788v250h24q41 0 61.5 -27t20.5 -93 q0 -61 -20.5 -95.5t-61.5 -34.5h-24z" />
<glyph unicode="&#xaf;" horiz-adv-x="675" d="M90 1253h496v138h-496v-138z" />
<glyph unicode="&#xb0;" horiz-adv-x="708" d="M57 1153q0 -66 22.5 -122t61.5 -97t93.5 -64.5t119.5 -23.5q66 0 120 23.5t94 64.5t61.5 97t21.5 122q0 63 -21.5 118.5t-61.5 96.5t-94 64.5t-120 23.5t-120 -23.5t-93 -64.5t-61.5 -96t-22.5 -119zM195 1153q0 76 44 124t115 48q72 0 117 -48t45 -124q0 -78 -45 -128 t-117 -50t-115.5 50t-43.5 128z" />
<glyph unicode="&#xb1;" horiz-adv-x="1122" d="M20 713l285 -221q20 -16 37 -9q16 12 6 39l-37 113h172v-383l-112 39q-29 8 -39 -8q-8 -14 8 -35l221 -285l221 285q16 20 9 35q-10 16 -39 8l-113 -39v383h174l-39 -113q-8 -27 6 -39q16 -8 37 9l285 221l-285 221q-20 16 -37 8q-14 -12 -6 -39l39 -112h-174v391 l113 -39q29 -8 39 8q8 14 -9 35l-221 284l-221 -284q-16 -20 -8 -35q10 -16 39 -8l112 39v-391h-172l37 112q10 27 -6 39q-16 8 -37 -8z" />
<glyph unicode="&#xb2;" horiz-adv-x="1122" d="M20 713l285 -221q20 -16 37 -9q16 12 6 39l-37 113h172v-383l-112 39q-29 8 -39 -8q-8 -14 8 -35l221 -285l221 285q16 20 9 35q-10 16 -39 8l-113 -39v383h174l-39 -113q-8 -27 6 -39q16 -8 37 9l285 221l-285 221q-20 16 -37 8q-14 -12 -6 -39l39 -112h-174v391 l113 -39q29 -8 39 8q8 14 -9 35l-221 284l-221 -284q-16 -20 -8 -35q10 -16 39 -8l112 39v-391h-172l37 112q10 27 -6 39q-16 8 -37 -8z" />
<glyph unicode="&#xb3;" horiz-adv-x="1122" d="M20 713l285 -221q20 -16 37 -9q16 12 6 39l-37 113h172v-383l-112 39q-29 8 -39 -8q-8 -14 8 -35l221 -285l221 285q16 20 9 35q-10 16 -39 8l-113 -39v383h174l-39 -113q-8 -27 6 -39q16 -8 37 9l285 221l-285 221q-20 16 -37 8q-14 -12 -6 -39l39 -112h-174v391 l113 -39q29 -8 39 8q8 14 -9 35l-221 284l-221 -284q-16 -20 -8 -35q10 -16 39 -8l112 39v-391h-172l37 112q10 27 -6 39q-16 8 -37 -8z" />
<glyph unicode="&#xb4;" horiz-adv-x="675" d="M186 1212h125l246 328h-219z" />
<glyph unicode="&#xb6;" horiz-adv-x="991" d="M59 1036q0 -98 29 -171.5t78 -125t115.5 -77t142.5 -25.5h37v-1016h151v1673h121v-1673h152v1813h-453q-76 0 -143.5 -26t-118.5 -76t-81 -124.5t-30 -171.5z" />
<glyph unicode="&#xb7;" horiz-adv-x="413" d="M92 752q0 -51 34 -86t85 -35q53 0 87 35t34 86t-34 85.5t-87 34.5q-51 0 -85 -34.5t-34 -85.5z" />
<glyph unicode="&#xb8;" horiz-adv-x="675" d="M152 -334q37 -27 83 -44t91 -17q72 0 127 39t55 125q0 70 -35 107.5t-84 37.5q-25 0 -42 -5t-30 -13l37 104h-80l-57 -160l66 -33q25 23 57 23q51 0 51 -63q0 -39 -19.5 -61.5t-58.5 -22.5q-55 0 -125 45z" />
<glyph unicode="&#xb9;" horiz-adv-x="1122" d="M20 713l285 -221q20 -16 37 -9q16 12 6 39l-37 113h172v-383l-112 39q-29 8 -39 -8q-8 -14 8 -35l221 -285l221 285q16 20 9 35q-10 16 -39 8l-113 -39v383h174l-39 -113q-8 -27 6 -39q16 -8 37 9l285 221l-285 221q-20 16 -37 8q-14 -12 -6 -39l39 -112h-174v391 l113 -39q29 -8 39 8q8 14 -9 35l-221 284l-221 -284q-16 -20 -8 -35q10 -16 39 -8l112 39v-391h-172l37 112q10 27 -6 39q-16 8 -37 -8z" />
<glyph unicode="&#xba;" horiz-adv-x="645" d="M84 1004q0 -92 12.5 -173t40 -141.5t71.5 -94.5t109 -34q70 0 117 35t75 96.5t40 143.5t12 176q0 92 -12 173t-40 141t-73 95t-110 35q-74 0 -121 -37t-74 -98t-37 -143t-10 -174zM233 1012q0 57 2.5 113.5t11.5 100.5t26.5 70.5t48.5 26.5q29 0 47 -26.5t27.5 -71.5 t12.5 -101.5t3 -117.5q0 -57 -2 -113.5t-11.5 -100.5t-27 -71t-47.5 -27q-33 0 -51.5 27t-26.5 72t-10.5 102t-2.5 117z" />
<glyph unicode="&#xbb;" horiz-adv-x="827" d="M53 0h174l250 539l-250 536h-174l246 -538zM377 0h174l250 539l-250 536h-174l246 -538z" />
<glyph unicode="&#xbc;" horiz-adv-x="1122" d="M20 713l285 -221q20 -16 37 -9q16 12 6 39l-37 113h172v-383l-112 39q-29 8 -39 -8q-8 -14 8 -35l221 -285l221 285q16 20 9 35q-10 16 -39 8l-113 -39v383h174l-39 -113q-8 -27 6 -39q16 -8 37 9l285 221l-285 221q-20 16 -37 8q-14 -12 -6 -39l39 -112h-174v391 l113 -39q29 -8 39 8q8 14 -9 35l-221 284l-221 -284q-16 -20 -8 -35q10 -16 39 -8l112 39v-391h-172l37 112q10 27 -6 39q-16 8 -37 -8z" />
<glyph unicode="&#xbd;" horiz-adv-x="1122" d="M20 713l285 -221q20 -16 37 -9q16 12 6 39l-37 113h172v-383l-112 39q-29 8 -39 -8q-8 -14 8 -35l221 -285l221 285q16 20 9 35q-10 16 -39 8l-113 -39v383h174l-39 -113q-8 -27 6 -39q16 -8 37 9l285 221l-285 221q-20 16 -37 8q-14 -12 -6 -39l39 -112h-174v391 l113 -39q29 -8 39 8q8 14 -9 35l-221 284l-221 -284q-16 -20 -8 -35q10 -16 39 -8l112 39v-391h-172l37 112q10 27 -6 39q-16 8 -37 -8z" />
<glyph unicode="&#xbe;" horiz-adv-x="1122" d="M20 713l285 -221q20 -16 37 -9q16 12 6 39l-37 113h172v-383l-112 39q-29 8 -39 -8q-8 -14 8 -35l221 -285l221 285q16 20 9 35q-10 16 -39 8l-113 -39v383h174l-39 -113q-8 -27 6 -39q16 -8 37 9l285 221l-285 221q-20 16 -37 8q-14 -12 -6 -39l39 -112h-174v391 l113 -39q29 -8 39 8q8 14 -9 35l-221 284l-221 -284q-16 -20 -8 -35q10 -16 39 -8l112 39v-391h-172l37 112q10 27 -6 39q-16 8 -37 -8z" />
<glyph unicode="&#xbf;" horiz-adv-x="655" d="M49 297q0 -141 72 -230.5t213 -89.5q119 0 192.5 78t106.5 201l-154 74q-29 -92 -58.5 -133t-82.5 -41q-57 0 -83 44t-26 119q0 37 4.5 66t14.5 56.5t27.5 57t46.5 66.5q43 57 68.5 108.5t39.5 108t19.5 123t5.5 156.5h-168q0 -80 -4 -136.5t-16.5 -101.5t-34 -85 t-58.5 -89q-35 -47 -58.5 -87t-39 -80t-21.5 -85t-6 -100zM252 1337q0 -51 32.5 -84.5t86.5 -33.5q51 0 83.5 33.5t32.5 84.5t-32.5 85t-83.5 34q-53 0 -86 -33.5t-33 -85.5z" />
<glyph unicode="&#xc0;" horiz-adv-x="735" d="M35 0h186l45 344h197l47 -344h190l-231 1434h-201zM63 1847l246 -327h125l-151 327h-220zM289 522l51 398q6 53 12 101t10 99q4 -51 10.5 -99t12.5 -99l53 -400h-149z" />
<glyph unicode="&#xc1;" horiz-adv-x="735" d="M35 0h186l45 344h197l47 -344h190l-231 1434h-201zM289 522l51 398q6 53 12 101t10 99q4 -51 10.5 -99t12.5 -99l53 -400h-149zM301 1520h125l246 327h-219z" />
<glyph unicode="&#xc2;" horiz-adv-x="735" d="M35 0h186l45 344h197l47 -344h190l-231 1434h-201zM121 1497h133l113 178l112 -178h137l-180 328h-135zM289 522l51 398q6 53 12 101t10 99q4 -51 10.5 -99t12.5 -99l53 -400h-149z" />
<glyph unicode="&#xc3;" horiz-adv-x="735" d="M35 0h186l45 344h197l47 -344h190l-231 1434h-201zM92 1528h121q6 63 18.5 84.5t34.5 21.5q23 0 39.5 -13t56.5 -48q33 -29 62 -40t63 -11q66 0 112 57t46 186h-121q-6 -59 -18 -82.5t-35 -23.5q-18 0 -36.5 13.5t-59.5 49.5q-61 49 -125 50q-66 0 -112 -57.5t-46 -186.5 zM289 522l51 398q6 53 12 101t10 99q4 -51 10.5 -99t12.5 -99l53 -400h-149z" />
<glyph unicode="&#xc4;" horiz-adv-x="735" d="M35 0h186l45 344h197l47 -344h190l-231 1434h-201zM100 1640q0 -47 33 -80.5t82 -33.5q45 0 78 33.5t33 80.5t-33 80t-78 33q-49 0 -82 -32.5t-33 -80.5zM289 522l51 398q6 53 12 101t10 99q4 -51 10.5 -99t12.5 -99l53 -400h-149zM412 1640q0 -47 32.5 -80.5t79.5 -33.5 t80 33.5t33 80.5t-33 80t-80 33t-79.5 -32.5t-32.5 -80.5z" />
<glyph unicode="&#xc5;" horiz-adv-x="735" d="M35 0h186l45 344h197l47 -344h190l-215 1335q39 27 60.5 69t21.5 93q0 86 -56 142.5t-142 56.5t-142.5 -56.5t-56.5 -142.5q0 -51 21.5 -93t60.5 -69zM272 1497q0 43 28 71.5t69 28.5t68.5 -28.5t27.5 -71.5t-27.5 -71.5t-68.5 -28.5t-69 28.5t-28 71.5zM289 522l51 398 q6 53 12 101t10 99q4 -51 10.5 -99t12.5 -99l53 -400h-149z" />
<glyph unicode="&#xc6;" horiz-adv-x="1046" d="M16 0h193l80 344h194v-344h518v180h-339v486h243v180h-243v407h315v181h-586zM330 522l96 422q8 33 16.5 71t16.5 74.5t15 70.5t13 61q0 -23 -1 -53.5t-2 -65.5t-1 -72v-69v-439h-153z" />
<glyph unicode="&#xc7;" horiz-adv-x="733" d="M74 713q0 -338 52 -521.5t200 -209.5l-52 -142l66 -33q25 23 57 23q51 0 52 -63q0 -39 -19.5 -61.5t-58.5 -22.5q-55 0 -125 45l-37 -62q37 -27 83 -44t91 -17q72 0 127 39t55 125q0 70 -34.5 107.5t-84.5 37.5q-25 0 -42 -5t-29 -13l28 81q74 4 122 36t79 85.5t47.5 124 t26.5 154.5l-180 24q-16 -133 -38 -186t-69 -53q-35 0 -59.5 23.5t-40 86t-22.5 171t-7 278.5q0 172 7 280.5t21.5 168t37 81t55.5 21.5q51 0 74.5 -62.5t31.5 -185.5l185 25q-4 88 -21.5 162.5t-52.5 129t-88 85t-127 30.5q-94 0 -154.5 -47t-95.5 -140t-48 -232.5 t-13 -323.5z" />
<glyph unicode="&#xc8;" horiz-adv-x="681" d="M82 1847l246 -327h125l-152 327h-219zM113 0h524v180h-340v486h244v180h-244v407h315v181h-499v-1434z" />
<glyph unicode="&#xc9;" horiz-adv-x="681" d="M113 0h524v180h-340v486h244v180h-244v407h315v181h-499v-1434zM279 1520h124l246 327h-219z" />
<glyph unicode="&#xca;" horiz-adv-x="681" d="M113 0h524v180h-340v486h244v180h-244v407h315v181h-499v-1434zM115 1520h133l112 178l113 -178h137l-180 327h-135z" />
<glyph unicode="&#xcb;" horiz-adv-x="681" d="M92 1640q0 -47 33 -80.5t82 -33.5q45 0 77.5 33.5t32.5 80.5t-32.5 80t-77.5 33q-49 0 -82 -32.5t-33 -80.5zM113 0h524v180h-340v486h244v180h-244v407h315v181h-499v-1434zM403 1640q0 -47 33 -80.5t80 -33.5t80 33.5t33 80.5t-33 80t-80 33t-80 -32.5t-33 -80.5z" />
<glyph unicode="&#xcc;" horiz-adv-x="421" d="M-94 1847l246 -327h124l-151 327h-219zM119 0h184v1434h-184v-1434z" />
<glyph unicode="&#xcd;" horiz-adv-x="421" d="M119 0h184v1434h-184v-1434zM145 1520h125l246 327h-219z" />
<glyph unicode="&#xce;" horiz-adv-x="421" d="M-37 1505h133l113 178l113 -178h137l-180 328h-136zM119 0h184v1434h-184v-1434z" />
<glyph unicode="&#xcf;" horiz-adv-x="421" d="M-57 1640q0 -47 32.5 -80.5t81.5 -33.5q45 0 78 33.5t33 80.5t-33 80t-78 33q-49 0 -81.5 -32.5t-32.5 -80.5zM119 0h184v1434h-184v-1434zM254 1640q0 -47 32.5 -80.5t80.5 -33.5q47 0 79.5 33.5t32.5 80.5t-32.5 80t-79.5 33t-80 -32.5t-33 -80.5z" />
<glyph unicode="&#xd0;" horiz-adv-x="796" d="M51 666h82v-666h227q190 0 277.5 178t87.5 549q0 166 -15.5 298t-55.5 222t-106.5 138.5t-166.5 48.5h-248v-600h-82v-168zM309 176v490h113v168h-113v421h62q43 0 73.5 -24.5t51 -86t31 -162.5t10.5 -255q0 -162 -11.5 -268.5t-34 -169t-54 -88t-70.5 -25.5h-58z" />
<glyph unicode="&#xd1;" horiz-adv-x="827" d="M113 0h174v553q0 39 -1 94t-1 115q0 61 -1 117.5t-1 99.5q12 -43 28.5 -101.5t33.5 -120t35.5 -120.5t33.5 -105l170 -532h131v1434h-174v-465v-76q0 -45 1 -96.5t1 -102.5v-90q-10 43 -24.5 94.5t-30 101.5t-29 95t-23.5 76l-149 463h-174v-1434zM147 1532h121 q6 63 18.5 84.5t35.5 21.5t39 -13t57 -48q33 -29 61.5 -40t63.5 -11q66 0 111.5 57t45.5 186h-120q-6 -59 -18.5 -82.5t-35.5 -23.5q-18 0 -36.5 13.5t-59.5 49.5q-61 49 -125 50q-66 0 -112 -57.5t-46 -186.5z" />
<glyph unicode="&#xd2;" horiz-adv-x="770" d="M74 713q0 -176 13 -313.5t47 -230.5t93.5 -142.5t153.5 -49.5q98 0 159.5 50.5t96.5 145.5t47 233.5t12 314.5q0 172 -13 308t-48 231.5t-95.5 145.5t-156.5 50t-155.5 -50t-94.5 -145.5t-47 -233.5t-12 -314zM86 1847l246 -327h125l-152 327h-219zM262 723 q0 162 6 268.5t19.5 169t36 87t57.5 24.5q33 0 57.5 -25.5t40 -89t22.5 -172t7 -274.5q0 -162 -6 -268.5t-20.5 -169t-38 -87t-56.5 -24.5q-35 0 -58.5 25.5t-38 89t-21.5 172t-7 274.5z" />
<glyph unicode="&#xd3;" horiz-adv-x="770" d="M74 713q0 -176 13 -313.5t47 -230.5t93.5 -142.5t153.5 -49.5q98 0 159.5 50.5t96.5 145.5t47 233.5t12 314.5q0 172 -13 308t-48 231.5t-95.5 145.5t-156.5 50t-155.5 -50t-94.5 -145.5t-47 -233.5t-12 -314zM262 723q0 162 6 268.5t19.5 169t36 87t57.5 24.5 q33 0 57.5 -25.5t40 -89t22.5 -172t7 -274.5q0 -162 -6 -268.5t-20.5 -169t-38 -87t-56.5 -24.5q-35 0 -58.5 25.5t-38 89t-21.5 172t-7 274.5zM313 1520h125l246 327h-219z" />
<glyph unicode="&#xd4;" horiz-adv-x="770" d="M74 713q0 -176 13 -313.5t47 -230.5t93.5 -142.5t153.5 -49.5q98 0 159.5 50.5t96.5 145.5t47 233.5t12 314.5q0 172 -13 308t-48 231.5t-95.5 145.5t-156.5 50t-155.5 -50t-94.5 -145.5t-47 -233.5t-12 -314zM135 1509h133l113 179l113 -179h137l-180 328h-136zM262 723 q0 162 6 268.5t19.5 169t36 87t57.5 24.5q33 0 57.5 -25.5t40 -89t22.5 -172t7 -274.5q0 -162 -6 -268.5t-20.5 -169t-38 -87t-56.5 -24.5q-35 0 -58.5 25.5t-38 89t-21.5 172t-7 274.5z" />
<glyph unicode="&#xd5;" horiz-adv-x="770" d="M74 713q0 -176 13 -313.5t47 -230.5t93.5 -142.5t153.5 -49.5q98 0 159.5 50.5t96.5 145.5t47 233.5t12 314.5q0 172 -13 308t-48 231.5t-95.5 145.5t-156.5 50t-155.5 -50t-94.5 -145.5t-47 -233.5t-12 -314zM106 1528h121q6 63 18.5 84.5t35.5 21.5t39 -13t57 -48 q33 -29 61.5 -40t63.5 -11q66 0 111.5 57t45.5 186h-120q-6 -59 -18.5 -82.5t-35.5 -23.5q-18 0 -36.5 13.5t-59.5 49.5q-61 49 -125 50q-66 0 -112 -57.5t-46 -186.5zM262 723q0 162 6 268.5t19.5 169t36 87t57.5 24.5q33 0 57.5 -25.5t40 -89t22.5 -172t7 -274.5 q0 -162 -6 -268.5t-20.5 -169t-38 -87t-56.5 -24.5q-35 0 -58.5 25.5t-38 89t-21.5 172t-7 274.5z" />
<glyph unicode="&#xd6;" horiz-adv-x="770" d="M74 713q0 -176 13 -313.5t47 -230.5t93.5 -142.5t153.5 -49.5q98 0 159.5 50.5t96.5 145.5t47 233.5t12 314.5q0 172 -13 308t-48 231.5t-95.5 145.5t-156.5 50t-155.5 -50t-94.5 -145.5t-47 -233.5t-12 -314zM115 1640q0 -47 32.5 -80.5t81.5 -33.5q45 0 78 33.5 t33 80.5t-33 80t-78 33q-49 0 -81.5 -32.5t-32.5 -80.5zM262 723q0 162 6 268.5t19.5 169t36 87t57.5 24.5q33 0 57.5 -25.5t40 -89t22.5 -172t7 -274.5q0 -162 -6 -268.5t-20.5 -169t-38 -87t-56.5 -24.5q-35 0 -58.5 25.5t-38 89t-21.5 172t-7 274.5zM426 1640 q0 -47 33 -80.5t80 -33.5t79.5 33.5t32.5 80.5t-32.5 80t-79.5 33t-80 -32.5t-33 -80.5z" />
<glyph unicode="&#xd7;" horiz-adv-x="1122" d="M20 713l285 -221q20 -16 37 -9q16 12 6 39l-37 113h172v-383l-112 39q-29 8 -39 -8q-8 -14 8 -35l221 -285l221 285q16 20 9 35q-10 16 -39 8l-113 -39v383h174l-39 -113q-8 -27 6 -39q16 -8 37 9l285 221l-285 221q-20 16 -37 8q-14 -12 -6 -39l39 -112h-174v391 l113 -39q29 -8 39 8q8 14 -9 35l-221 284l-221 -284q-16 -20 -8 -35q10 -16 39 -8l112 39v-391h-172l37 112q10 27 -6 39q-16 8 -37 -8z" />
<glyph unicode="&#xd8;" horiz-adv-x="770" d="M74 713q0 -201 16 -349.5t64 -242.5l-60 -223h139l29 106q47 -27 119 -27q98 0 159.5 50.5t96.5 145.5t47 233.5t12 314.5q0 197 -17 345t-65 243l62 227h-139l-29 -109q-53 29 -125 29q-96 0 -155.5 -50t-94.5 -145.5t-47 -233.5t-12 -314zM242 723q0 166 9 273.5 t26.5 170t43 88t60.5 25.5q23 0 43.5 -4.5t36.5 -24.5l-213 -784q-6 104 -6 256zM309 180l213 787q6 -102 6 -256q0 -166 -9 -273.5t-27.5 -170t-45 -88t-59.5 -25.5q-23 0 -42 5t-36 21z" />
<glyph unicode="&#xd9;" horiz-adv-x="819" d="M106 1833l246 -328h125l-151 328h-220zM109 334q0 -166 79.5 -261.5t221.5 -95.5q154 0 227.5 95.5t73.5 273.5v1088h-185v-1092q0 -98 -25.5 -139t-88.5 -41q-59 0 -89 42t-30 140v1090h-184v-1100z" />
<glyph unicode="&#xda;" horiz-adv-x="819" d="M109 334q0 -166 79.5 -261.5t221.5 -95.5q154 0 227.5 95.5t73.5 273.5v1088h-185v-1092q0 -98 -25.5 -139t-88.5 -41q-59 0 -89 42t-30 140v1090h-184v-1100zM344 1505h125l246 328h-219z" />
<glyph unicode="&#xdb;" horiz-adv-x="819" d="M109 334q0 -166 79.5 -261.5t221.5 -95.5q154 0 227.5 95.5t73.5 273.5v1088h-185v-1092q0 -98 -25.5 -139t-88.5 -41q-59 0 -89 42t-30 140v1090h-184v-1100zM162 1520h133l113 178l112 -178h137l-180 327h-135z" />
<glyph unicode="&#xdc;" horiz-adv-x="819" d="M109 334q0 -166 79.5 -261.5t221.5 -95.5q154 0 227.5 95.5t73.5 273.5v1088h-185v-1092q0 -98 -25.5 -139t-88.5 -41q-59 0 -89 42t-30 140v1090h-184v-1100zM141 1640q0 -47 33 -80.5t82 -33.5q45 0 78 33.5t33 80.5t-33 80t-78 33q-49 0 -82 -32.5t-33 -80.5z M453 1640q0 -47 32.5 -80.5t79.5 -33.5t80 33.5t33 80.5t-33 80t-80 33t-79.5 -32.5t-32.5 -80.5z" />
<glyph unicode="&#xdd;" horiz-adv-x="733" d="M20 1434l265 -813v-621h184v631l244 803h-197l-84 -363q-6 -25 -13 -60.5t-15.5 -74.5t-14.5 -77t-10 -68q-4 31 -11.5 68.5t-15.5 75.5t-16 73.5t-14 62.5l-95 363h-207zM309 1524h125l246 327h-219z" />
<glyph unicode="&#xde;" horiz-adv-x="737" d="M113 0h184v330h70q66 0 124 24.5t103 74.5t70.5 129t25.5 190t-24.5 187.5t-67.5 122.5t-100.5 66.5t-122.5 20.5h-78v289h-184v-1434zM297 504v467h76q68 0 99.5 -54.5t31.5 -179.5q0 -123 -38 -178t-104 -55h-65z" />
<glyph unicode="&#xdf;" horiz-adv-x="757" d="M90 -395l172 98v1427q0 104 20.5 151.5t73.5 47.5q57 0 80 -53t23 -164q0 -127 -22.5 -173t-74.5 -46h-20v-158h23q76 0 112.5 -61.5t36.5 -224.5q0 -78 -6 -133.5t-22.5 -90.5t-46 -51t-77.5 -16h-20v-158h18q92 0 156 26.5t103.5 83t57 144.5t17.5 209q0 86 -11 148.5 t-33.5 105.5t-54.5 68.5t-71 39.5q51 33 81 99.5t30 199.5q0 172 -67.5 267.5t-202.5 95.5q-131 0 -203 -89t-72 -276v-1517z" />
<glyph unicode="&#xe0;" horiz-adv-x="677" d="M49 332q0 -174 60.5 -264.5t164.5 -90.5q49 0 83 18.5t65 55.5v-51h172v811q0 158 -62.5 222.5t-181.5 64.5q-74 0 -140.5 -36t-119.5 -93l98 -123q39 39 68 59.5t68 20.5q51 0 74.5 -28t23.5 -99v-144q-23 16 -53.5 26.5t-73.5 10.5q-121 0 -183.5 -93t-62.5 -267z M80 1540l246 -328h125l-152 328h-219zM217 336q0 190 102 190q37 0 58.5 -6t44.5 -20v-310q-18 -23 -45 -35t-51 -12q-59 0 -84 49.5t-25 143.5z" />
<glyph unicode="&#xe1;" horiz-adv-x="677" d="M49 332q0 -174 60.5 -264.5t164.5 -90.5q49 0 83 18.5t65 55.5v-51h172v811q0 158 -62.5 222.5t-181.5 64.5q-74 0 -140.5 -36t-119.5 -93l98 -123q39 39 68 59.5t68 20.5q51 0 74.5 -28t23.5 -99v-144q-23 16 -53.5 26.5t-73.5 10.5q-121 0 -183.5 -93t-62.5 -267z M217 336q0 190 102 190q37 0 58.5 -6t44.5 -20v-310q-18 -23 -45 -35t-51 -12q-59 0 -84 49.5t-25 143.5zM262 1212h125l246 328h-219z" />
<glyph unicode="&#xe2;" horiz-adv-x="677" d="M49 332q0 -174 60.5 -264.5t164.5 -90.5q49 0 83 18.5t65 55.5v-51h172v811q0 158 -62.5 222.5t-181.5 64.5q-74 0 -140.5 -36t-119.5 -93l98 -123q39 39 68 59.5t68 20.5q51 0 74.5 -28t23.5 -99v-144q-23 16 -53.5 26.5t-73.5 10.5q-121 0 -183.5 -93t-62.5 -267z M96 1202h133l113 178l113 -178h137l-180 328h-136zM217 336q0 190 102 190q37 0 58.5 -6t44.5 -20v-310q-18 -23 -45 -35t-51 -12q-59 0 -84 49.5t-25 143.5z" />
<glyph unicode="&#xe3;" horiz-adv-x="677" d="M49 332q0 -174 60.5 -264.5t164.5 -90.5q49 0 83 18.5t65 55.5v-51h172v811q0 158 -62.5 222.5t-181.5 64.5q-74 0 -140.5 -36t-119.5 -93l98 -123q39 39 68 59.5t68 20.5q51 0 74.5 -28t23.5 -99v-144q-23 16 -53.5 26.5t-73.5 10.5q-121 0 -183.5 -93t-62.5 -267z M72 1221h121q6 63 18 84.5t35 21.5t39 -13.5t57 -47.5q33 -29 61.5 -40.5t63.5 -11.5q66 0 112 57.5t46 186.5h-121q-6 -59 -18.5 -82.5t-34.5 -23.5q-18 0 -37 13t-60 50q-61 49 -125 49q-66 0 -111.5 -57t-45.5 -186zM217 336q0 190 102 190q37 0 58.5 -6t44.5 -20v-310 q-18 -23 -45 -35t-51 -12q-59 0 -84 49.5t-25 143.5z" />
<glyph unicode="&#xe4;" horiz-adv-x="677" d="M49 332q0 -174 60.5 -264.5t164.5 -90.5q49 0 83 18.5t65 55.5v-51h172v811q0 158 -62.5 222.5t-181.5 64.5q-74 0 -140.5 -36t-119.5 -93l98 -123q39 39 68 59.5t68 20.5q51 0 74.5 -28t23.5 -99v-144q-23 16 -53.5 26.5t-73.5 10.5q-121 0 -183.5 -93t-62.5 -267z M80 1323q0 -47 32.5 -81t82.5 -34q45 0 77.5 34t32.5 81t-32.5 80t-77.5 33q-49 0 -82 -33t-33 -80zM217 336q0 190 102 190q37 0 58.5 -6t44.5 -20v-310q-18 -23 -45 -35t-51 -12q-59 0 -84 49.5t-25 143.5zM391 1323q0 -47 33 -81t80 -34t79.5 34t32.5 81t-32.5 80 t-79.5 33t-80 -33t-33 -80z" />
<glyph unicode="&#xe5;" horiz-adv-x="677" d="M49 332q0 -174 60.5 -264.5t164.5 -90.5q49 0 83 18.5t65 55.5v-51h172v811q0 158 -62.5 222.5t-181.5 64.5q-74 0 -140.5 -36t-119.5 -93l98 -123q39 39 68 59.5t68 20.5q51 0 74.5 -28t23.5 -99v-144q-23 16 -53.5 26.5t-73.5 10.5q-121 0 -183.5 -93t-62.5 -267z M147 1415q0 -84 56.5 -141t142.5 -57t142.5 57t56.5 141q0 86 -56.5 142.5t-142.5 56.5t-142.5 -56.5t-56.5 -142.5zM217 336q0 190 102 190q37 0 58.5 -6t44.5 -20v-310q-18 -23 -45 -35t-51 -12q-59 0 -84 49.5t-25 143.5zM250 1415q0 43 27.5 72t68.5 29t68.5 -29 t27.5 -72t-27.5 -71.5t-68.5 -28.5t-68.5 28.5t-27.5 71.5z" />
<glyph unicode="&#xe6;" horiz-adv-x="1026" d="M49 332q0 -168 58.5 -261.5t187.5 -93.5q57 0 112.5 28t100.5 71q33 -47 79 -73t107 -26q57 0 98.5 17.5t72 48.5t53 74t40.5 96l-143 68q-29 -70 -49.5 -99.5t-63.5 -29.5q-59 0 -88.5 77.5t-33.5 247.5h387v51q0 274 -66.5 422t-202.5 148q-61 0 -104 -32t-70 -77 q-23 51 -62.5 80t-111.5 29q-74 0 -140.5 -36t-119.5 -93l98 -123q39 39 68 59.5t68 20.5q51 0 74.5 -28t23.5 -99v-144q-23 16 -53.5 26.5t-73.5 10.5q-121 0 -183.5 -93t-62.5 -267zM217 336q0 190 102 190q35 0 55.5 -5t41.5 -17q2 -84 10.5 -159t24.5 -138 q-27 -25 -59 -44.5t-66 -19.5q-59 0 -84 49.5t-25 143.5zM582 635q6 152 30.5 225.5t77.5 73.5q27 0 46.5 -23.5t32.5 -63.5t20.5 -94.5t9.5 -117.5h-217z" />
<glyph unicode="&#xe7;" horiz-adv-x="651" d="M63 530q0 -262 59.5 -391t166.5 -155l-51 -144l65 -33q25 23 57 23q51 0 52 -63q0 -39 -19.5 -61.5t-58.5 -22.5q-55 0 -125 45l-37 -62q37 -27 83 -44t91 -17q72 0 127 39t55 125q0 70 -34.5 107.5t-83.5 37.5q-25 0 -42.5 -5t-29.5 -13l29 81q94 6 150 79t85 198 l-147 61q-20 -84 -42 -123.5t-61 -39.5q-37 0 -59.5 26.5t-34.5 75.5t-16 119.5t-4 161.5q0 82 4 153.5t15 123.5t33.5 82t59.5 30q43 0 61.5 -51.5t30.5 -122.5l158 63q-8 55 -25.5 106.5t-45 91.5t-69.5 63.5t-100 23.5q-156 0 -226.5 -133.5t-70.5 -434.5z" />
<glyph unicode="&#xe8;" horiz-adv-x="673" d="M51 1540l246 -328h125l-152 328h-219zM63 530q0 -115 13.5 -215t45.5 -176t85 -119t135 -43q57 0 98 17.5t72 48.5t53.5 74t40.5 96l-143 68q-29 -70 -49.5 -99.5t-63.5 -29.5q-59 0 -89 77.5t-34 247.5h387v51q0 274 -66.5 422t-201.5 148q-152 0 -217.5 -147.5 t-65.5 -420.5zM229 635q6 152 31 225.5t78 73.5q27 0 46 -23.5t32.5 -63.5t20.5 -94.5t9 -117.5h-217z" />
<glyph unicode="&#xe9;" horiz-adv-x="673" d="M63 530q0 -115 13.5 -215t45.5 -176t85 -119t135 -43q57 0 98 17.5t72 48.5t53.5 74t40.5 96l-143 68q-29 -70 -49.5 -99.5t-63.5 -29.5q-59 0 -89 77.5t-34 247.5h387v51q0 274 -66.5 422t-201.5 148q-152 0 -217.5 -147.5t-65.5 -420.5zM229 635q6 152 31 225.5 t78 73.5q27 0 46 -23.5t32.5 -63.5t20.5 -94.5t9 -117.5h-217zM260 1212h125l246 328h-219z" />
<glyph unicode="&#xea;" horiz-adv-x="673" d="M63 530q0 -115 13.5 -215t45.5 -176t85 -119t135 -43q57 0 98 17.5t72 48.5t53.5 74t40.5 96l-143 68q-29 -70 -49.5 -99.5t-63.5 -29.5q-59 0 -89 77.5t-34 247.5h387v51q0 274 -66.5 422t-201.5 148q-152 0 -217.5 -147.5t-65.5 -420.5zM92 1192h133l113 178l113 -178 h137l-180 328h-136zM229 635q6 152 31 225.5t78 73.5q27 0 46 -23.5t32.5 -63.5t20.5 -94.5t9 -117.5h-217z" />
<glyph unicode="&#xeb;" horiz-adv-x="673" d="M63 530q0 -115 13.5 -215t45.5 -176t85 -119t135 -43q57 0 98 17.5t72 48.5t53.5 74t40.5 96l-143 68q-29 -70 -49.5 -99.5t-63.5 -29.5q-59 0 -89 77.5t-34 247.5h387v51q0 274 -66.5 422t-201.5 148q-152 0 -217.5 -147.5t-65.5 -420.5zM74 1323q0 -47 32.5 -81 t81.5 -34q45 0 78 34t33 81t-33 80t-78 33q-49 0 -81.5 -33t-32.5 -80zM229 635q6 152 31 225.5t78 73.5q27 0 46 -23.5t32.5 -63.5t20.5 -94.5t9 -117.5h-217zM385 1323q0 -47 33 -81t80 -34t79.5 34t32.5 81t-32.5 80t-79.5 33t-80 -33t-33 -80z" />
<glyph unicode="&#xec;" horiz-adv-x="370" d="M-121 1540l246 -328h125l-152 328h-219zM98 0h174v1075h-174v-1075z" />
<glyph unicode="&#xed;" horiz-adv-x="370" d="M98 0h174v1075h-174v-1075zM121 1212h125l246 328h-220z" />
<glyph unicode="&#xee;" horiz-adv-x="370" d="M-63 1182h133l112 178l113 -178h137l-180 327h-135zM98 0h174v1075h-174v-1075z" />
<glyph unicode="&#xef;" horiz-adv-x="370" d="M-84 1348q0 -47 33 -81t82 -34q45 0 77.5 34t32.5 81t-32.5 79.5t-77.5 32.5q-49 0 -82 -32.5t-33 -79.5zM98 0h174v1075h-174v-1075zM227 1348q0 -47 33 -81t80 -34t80 34t33 81t-33 79.5t-80 32.5t-80 -32.5t-33 -79.5z" />
<glyph unicode="&#xf0;" d="M63 483q0 -236 72 -371t219 -135q76 0 132.5 33t93 106.5t54 190.5t17.5 283q0 471 -149 682l92 100l-92 84l-86 -94q-90 72 -228 94v-147q74 -16 129 -56l-90 -96l92 -84l87 92q41 -59 65.5 -131.5t34.5 -156.5q-31 61 -69 88.5t-101 27.5q-68 0 -118 -37.5t-85 -105.5 t-52.5 -161t-17.5 -206zM238 485q0 176 26.5 258t89.5 82t93 -81t30 -261q0 -176 -28.5 -257t-90.5 -81q-66 0 -93 81t-27 259z" />
<glyph unicode="&#xf1;" horiz-adv-x="698" d="M84 1221h121q6 63 18.5 84.5t34.5 21.5q23 0 39 -13.5t57 -47.5q33 -29 61.5 -40.5t63.5 -11.5q66 0 112 57.5t46 186.5h-121q-6 -59 -18.5 -82.5t-34.5 -23.5q-18 0 -36.5 13t-59.5 50q-61 49 -125 49q-66 0 -112 -57t-46 -186zM90 0h172v881q49 47 111 47q41 0 55 -35 t14 -105v-788h172v791q0 168 -41 237.5t-143 69.5q-59 0 -97 -21.5t-71 -54.5v53h-172v-1075z" />
<glyph unicode="&#xf2;" d="M59 1540l246 -328h125l-151 328h-220zM63 532q0 -117 13.5 -218t46.5 -176t89 -118t140 -43q90 0 148.5 44.5t92.5 120t46 179t12 220.5q0 115 -13 216t-46 177t-89.5 120t-142.5 44q-96 0 -153 -46t-90 -123t-43.5 -180.5t-10.5 -216.5zM238 541q0 72 3 141.5t15 124.5 t35.5 89t64.5 34q39 0 62.5 -33t37 -88t17.5 -126.5t4 -147.5q0 -72 -3 -141.5t-15.5 -125t-36 -89.5t-64.5 -34q-43 0 -67.5 34t-36.5 89.5t-14 127t-2 145.5z" />
<glyph unicode="&#xf3;" d="M63 532q0 -117 13.5 -218t46.5 -176t89 -118t140 -43q90 0 148.5 44.5t92.5 120t46 179t12 220.5q0 115 -13 216t-46 177t-89.5 120t-142.5 44q-96 0 -153 -46t-90 -123t-43.5 -180.5t-10.5 -216.5zM238 541q0 72 3 141.5t15 124.5t35.5 89t64.5 34q39 0 62.5 -33t37 -88 t17.5 -126.5t4 -147.5q0 -72 -3 -141.5t-15.5 -125t-36 -89.5t-64.5 -34q-43 0 -67.5 34t-36.5 89.5t-14 127t-2 145.5zM281 1212h125l245 328h-219z" />
<glyph unicode="&#xf4;" d="M63 532q0 -117 13.5 -218t46.5 -176t89 -118t140 -43q90 0 148.5 44.5t92.5 120t46 179t12 220.5q0 115 -13 216t-46 177t-89.5 120t-142.5 44q-96 0 -153 -46t-90 -123t-43.5 -180.5t-10.5 -216.5zM109 1192h133l112 178l113 -178h137l-180 328h-135zM238 541 q0 72 3 141.5t15 124.5t35.5 89t64.5 34q39 0 62.5 -33t37 -88t17.5 -126.5t4 -147.5q0 -72 -3 -141.5t-15.5 -125t-36 -89.5t-64.5 -34q-43 0 -67.5 34t-36.5 89.5t-14 127t-2 145.5z" />
<glyph unicode="&#xf5;" d="M63 532q0 -117 13.5 -218t46.5 -176t89 -118t140 -43q90 0 148.5 44.5t92.5 120t46 179t12 220.5q0 115 -13 216t-46 177t-89.5 120t-142.5 44q-96 0 -153 -46t-90 -123t-43.5 -180.5t-10.5 -216.5zM82 1221h121q6 63 18 84.5t35 21.5t39 -13.5t57 -47.5 q33 -29 61.5 -40.5t63.5 -11.5q66 0 112 57.5t46 186.5h-121q-6 -59 -18.5 -82.5t-34.5 -23.5q-18 0 -36.5 13t-59.5 50q-61 49 -125 49q-66 0 -112 -57t-46 -186zM238 541q0 72 3 141.5t15 124.5t35.5 89t64.5 34q39 0 62.5 -33t37 -88t17.5 -126.5t4 -147.5 q0 -72 -3 -141.5t-15.5 -125t-36 -89.5t-64.5 -34q-43 0 -67.5 34t-36.5 89.5t-14 127t-2 145.5z" />
<glyph unicode="&#xf6;" d="M63 532q0 -117 13.5 -218t46.5 -176t89 -118t140 -43q90 0 148.5 44.5t92.5 120t46 179t12 220.5q0 115 -13 216t-46 177t-89.5 120t-142.5 44q-96 0 -153 -46t-90 -123t-43.5 -180.5t-10.5 -216.5zM90 1313q0 -47 33 -81t82 -34q45 0 77.5 34t32.5 81t-32.5 79.5 t-77.5 32.5q-49 0 -82 -32.5t-33 -79.5zM238 541q0 72 3 141.5t15 124.5t35.5 89t64.5 34q39 0 62.5 -33t37 -88t17.5 -126.5t4 -147.5q0 -72 -3 -141.5t-15.5 -125t-36 -89.5t-64.5 -34q-43 0 -67.5 34t-36.5 89.5t-14 127t-2 145.5zM401 1313q0 -47 33 -81t80 -34t80 34 t33 81t-33 79.5t-80 32.5t-80 -32.5t-33 -79.5z" />
<glyph unicode="&#xf7;" horiz-adv-x="1122" d="M20 713l285 -221q20 -16 37 -9q16 12 6 39l-37 113h172v-383l-112 39q-29 8 -39 -8q-8 -14 8 -35l221 -285l221 285q16 20 9 35q-10 16 -39 8l-113 -39v383h174l-39 -113q-8 -27 6 -39q16 -8 37 9l285 221l-285 221q-20 16 -37 8q-14 -12 -6 -39l39 -112h-174v391 l113 -39q29 -8 39 8q8 14 -9 35l-221 284l-221 -284q-16 -20 -8 -35q10 -16 39 -8l112 39v-391h-172l37 112q10 27 -6 39q-16 8 -37 -8z" />
<glyph unicode="&#xf8;" d="M63 532q0 -137 18.5 -250.5t65.5 -189.5l-63 -194h133l33 100q47 -20 102 -21q90 0 148.5 44.5t92.5 120t46 179t12 220.5q0 135 -18.5 249.5t-65.5 192.5l64 195h-133l-33 -101q-51 20 -105 21q-96 0 -153 -46t-90 -123t-43.5 -180.5t-10.5 -216.5zM227 440v101 q0 74 4.5 145.5t18.5 127.5t38.5 91t67.5 35q37 0 60 -16l-185 -570q-4 41 -4 86zM299 152l184 567q2 -39 3 -85t1 -99q0 -74 -4 -146t-18 -128t-39 -91t-68 -35q-33 0 -59 17z" />
<glyph unicode="&#xf9;" horiz-adv-x="698" d="M53 1540l246 -328h125l-152 328h-219zM84 285q0 -168 41 -238t143 -70q59 0 97 21.5t71 54.5v-53h172v1075h-172v-880q-49 -47 -110 -48q-41 0 -55.5 35t-14.5 105v788h-172v-790z" />
<glyph unicode="&#xfa;" horiz-adv-x="698" d="M84 285q0 -168 41 -238t143 -70q59 0 97 21.5t71 54.5v-53h172v1075h-172v-880q-49 -47 -110 -48q-41 0 -55.5 35t-14.5 105v788h-172v-790zM287 1212h125l245 328h-219z" />
<glyph unicode="&#xfb;" horiz-adv-x="698" d="M84 285q0 -168 41 -238t143 -70q59 0 97 21.5t71 54.5v-53h172v1075h-172v-880q-49 -47 -110 -48q-41 0 -55.5 35t-14.5 105v788h-172v-790zM100 1212h133l113 179l113 -179h137l-180 328h-135z" />
<glyph unicode="&#xfc;" horiz-adv-x="698" d="M80 1333q0 -47 32.5 -80.5t82.5 -33.5q45 0 77.5 33.5t32.5 80.5t-32.5 80t-77.5 33q-49 0 -82 -33t-33 -80zM84 285q0 -168 41 -238t143 -70q59 0 97 21.5t71 54.5v-53h172v1075h-172v-880q-49 -47 -110 -48q-41 0 -55.5 35t-14.5 105v788h-172v-790zM391 1333 q0 -47 33 -80.5t80 -33.5t79.5 33.5t32.5 80.5t-32.5 80t-79.5 33t-80 -33t-33 -80z" />
<glyph unicode="&#xfd;" horiz-adv-x="669" d="M27 1075l223 -1087l-94 -367h172l313 1454h-176l-74 -424q-8 -49 -17 -107.5t-17.5 -115.5t-15.5 -108.5t-11 -88.5q-4 37 -10.5 89.5t-14.5 109.5t-17 114.5t-18 106.5l-65 424h-178zM272 1192h125l246 328h-219z" />
<glyph unicode="&#xfe;" d="M90 -395l172 98v344q29 -31 66 -50.5t78 -19.5q129 0 183 143.5t54 424.5q0 125 -9 227t-35 174t-72 112t-119 40q-49 0 -85 -21.5t-61 -52.5v469l-172 -94v-1794zM262 201v682q20 20 46 33.5t57 13.5q66 0 85 -103.5t19 -291.5q0 -203 -20.5 -294t-77.5 -91 q-35 0 -60.5 14t-48.5 37z" />
<glyph unicode="&#xff;" horiz-adv-x="669" d="M27 1075l223 -1087l-94 -367h172l313 1454h-176l-74 -424q-8 -49 -17 -107.5t-17.5 -115.5t-15.5 -108.5t-11 -88.5q-4 37 -10.5 89.5t-14.5 109.5t-17 114.5t-18 106.5l-65 424h-178zM66 1333q0 -47 32.5 -80.5t81.5 -33.5q45 0 78 33.5t33 80.5t-33 80t-78 33 q-49 0 -81.5 -33t-32.5 -80zM377 1333q0 -47 32.5 -80.5t79.5 -33.5t80 33.5t33 80.5t-32.5 80t-80.5 33q-47 0 -79.5 -33t-32.5 -80z" />
<glyph unicode="&#x152;" horiz-adv-x="1073" d="M74 713q0 -176 13 -313.5t47 -230.5t93.5 -142.5t153.5 -49.5q66 0 110 29t74 96v-102h463v180h-340v486h244v180h-244v407h316v181h-439v-103q-31 68 -75 96.5t-107 28.5q-96 0 -155.5 -50t-94.5 -145.5t-47 -233.5t-12 -314zM262 723q0 162 6 268.5t19.5 169t36 87 t57.5 24.5q33 0 57.5 -25.5t40 -89t22.5 -172t7 -274.5q0 -162 -6 -268.5t-20.5 -169t-38 -87t-56.5 -24.5q-35 0 -58.5 25.5t-38 89t-21.5 172t-7 274.5z" />
<glyph unicode="&#x153;" horiz-adv-x="1079" d="M63 532q0 -117 13.5 -218t46.5 -176t89 -118t140 -43q80 0 131.5 40t73.5 104q25 -63 72 -103.5t119 -40.5q57 0 98 17.5t71.5 48.5t53 74t41.5 96l-144 68q-29 -70 -49 -99.5t-63 -29.5q-59 0 -90 77.5t-35 247.5h389v51q0 274 -66.5 422t-201.5 148q-76 0 -123 -40 t-72 -106q-23 66 -74 106t-123 40q-96 0 -153 -46t-90 -123t-43.5 -180.5t-10.5 -216.5zM238 541q0 72 3 141.5t15 124.5t35.5 89t64.5 34q39 0 62.5 -33t36 -88t16.5 -126.5t4 -147.5q0 -72 -3 -141.5t-14.5 -125t-35 -89.5t-64.5 -34q-43 0 -67.5 34t-36.5 89.5t-14 127 t-2 145.5zM633 635q6 152 31.5 225.5t78.5 73.5q27 0 46.5 -23.5t33 -63.5t20.5 -94.5t9 -117.5h-219z" />
<glyph unicode="&#x178;" horiz-adv-x="733" d="M20 1434l265 -813v-621h184v631l244 803h-197l-84 -363q-6 -25 -13 -60.5t-15.5 -74.5t-14.5 -77t-10 -68q-4 31 -11.5 68.5t-15.5 75.5t-16 73.5t-14 62.5l-95 363h-207zM102 1636q0 -47 33 -80.5t82 -33.5q45 0 78 33.5t33 80.5t-33 80t-78 33q-49 0 -82 -33t-33 -80z M414 1636q0 -47 32.5 -80.5t79.5 -33.5t80 33.5t33 80.5t-33 80t-80 33t-79.5 -33t-32.5 -80z" />
<glyph unicode="&#x2c6;" horiz-adv-x="675" d="M90 1212h133l113 179l113 -179h137l-180 328h-136z" />
<glyph unicode="&#x2dc;" horiz-adv-x="675" d="M61 1221h121q6 63 18.5 84.5t35.5 21.5t39 -13.5t57 -47.5q33 -29 61.5 -40.5t63.5 -11.5q66 0 111.5 57.5t45.5 186.5h-120q-6 -59 -18.5 -82.5t-35.5 -23.5q-18 0 -36.5 13t-59.5 50q-61 49 -125 49q-66 0 -112 -57t-46 -186z" />
<glyph unicode="&#x2000;" horiz-adv-x="925" />
<glyph unicode="&#x2001;" horiz-adv-x="1851" />
<glyph unicode="&#x2002;" horiz-adv-x="925" />
<glyph unicode="&#x2003;" horiz-adv-x="1851" />
<glyph unicode="&#x2004;" horiz-adv-x="617" />
<glyph unicode="&#x2005;" horiz-adv-x="462" />
<glyph unicode="&#x2006;" horiz-adv-x="308" />
<glyph unicode="&#x2007;" horiz-adv-x="308" />
<glyph unicode="&#x2008;" horiz-adv-x="231" />
<glyph unicode="&#x2009;" horiz-adv-x="370" />
<glyph unicode="&#x200a;" horiz-adv-x="102" />
<glyph unicode="&#x2010;" horiz-adv-x="507" d="M70 659h368v181h-368v-181z" />
<glyph unicode="&#x2011;" horiz-adv-x="507" d="M70 659h368v181h-368v-181z" />
<glyph unicode="&#x2012;" horiz-adv-x="507" d="M70 659h368v181h-368v-181z" />
<glyph unicode="&#x2013;" horiz-adv-x="614" d="M70 666h475v168h-475v-168z" />
<glyph unicode="&#x2014;" horiz-adv-x="774" d="M70 666h635v168h-635v-168z" />
<glyph unicode="&#x2018;" horiz-adv-x="425" d="M86 1038h207l24 396h-116z" />
<glyph unicode="&#x2019;" horiz-adv-x="425" d="M109 1038h116l115 396h-207z" />
<glyph unicode="&#x201a;" horiz-adv-x="425" d="M109 -184h116l115 395h-207z" />
<glyph unicode="&#x201c;" horiz-adv-x="770" d="M86 1038h207l24 396h-116zM430 1038h207l25 396h-117z" />
<glyph unicode="&#x201d;" horiz-adv-x="770" d="M109 1038h116l115 396h-207zM453 1038h116l115 396h-207z" />
<glyph unicode="&#x201e;" horiz-adv-x="770" d="M109 -184h116l115 395h-207zM453 -184h116l115 395h-207z" />
<glyph unicode="&#x2022;" horiz-adv-x="649" d="M125 750q0 -84 57.5 -141.5t141.5 -57.5q86 0 143 57.5t57 141.5t-57 143t-143 59q-84 0 -141.5 -59t-57.5 -143z" />
<glyph unicode="&#x2026;" horiz-adv-x="1241" d="M92 98q0 -51 34 -86t85 -35q53 0 87 35t34 86t-34 86t-87 35q-51 0 -85 -34.5t-34 -86.5zM506 98q0 -51 33.5 -86t85.5 -35q53 0 86.5 35t33.5 86t-33.5 86t-86.5 35q-51 0 -85 -34.5t-34 -86.5zM920 98q0 -51 33.5 -86t84.5 -35q53 0 87 35t34 86t-33.5 86t-87.5 35 q-51 0 -84.5 -34.5t-33.5 -86.5z" />
<glyph unicode="&#x202f;" horiz-adv-x="370" />
<glyph unicode="&#x2039;" horiz-adv-x="503" d="M27 537l249 -537h175l-246 539l246 536h-175z" />
<glyph unicode="&#x203a;" horiz-adv-x="503" d="M53 0h174l250 539l-250 536h-174l246 -538z" />
<glyph unicode="&#x205f;" horiz-adv-x="462" />
<glyph unicode="&#x20ac;" horiz-adv-x="712" d="M70 713q0 -184 14 -321.5t49 -229.5t94.5 -138.5t149.5 -46.5q80 0 133 30t86 83t50.5 127t27.5 160l-174 24q-8 -72 -18.5 -120t-25 -76.5t-31.5 -39.5t-40 -11q-29 0 -51.5 15t-38.5 56t-27.5 112t-15.5 179h276v148h-280v57v57h280v148h-276q4 111 13 180.5t24.5 107 t37 52t48.5 14.5q51 0 78.5 -60.5t38.5 -195.5l178 25q-4 88 -21.5 162.5t-52.5 129t-88 85t-127 30.5q-94 0 -154.5 -47t-95.5 -140t-48 -232.5t-13 -323.5z" />
<glyph unicode="&#x2122;" horiz-adv-x="927" d="M25 1331h112v-708h111v708h112v103h-335v-103zM438 623h101v344q0 41 -1 77.5t-1 67.5q4 -29 13 -68.5t19 -80.5l84 -361l84 361q10 41 19.5 81.5t15.5 71.5q-2 -35 -2 -72v-77v-344h98v811h-108l-70 -316q-10 -53 -20.5 -99t-16.5 -87q-4 39 -13 86t-19 100l-74 316 h-109v-811z" />
<glyph unicode="&#x25fc;" horiz-adv-x="1075" d="M0 0v1075h1075v-1075h-1075z" />
<glyph unicode="&#xfb01;" horiz-adv-x="817" d="M35 903h84v-903h172v903h125v172h-125v148q0 90 76 90q46 -1 77 -13v170q-29 10 -53 13.5t-67 3.5q-94 0 -149.5 -62.5t-55.5 -191.5v-158h-84v-172zM522 1370q0 -45 34 -80t77 -35t75.5 35t32.5 80q0 47 -32.5 82t-75.5 35t-77 -35t-34 -82zM545 0h174v1075h-174v-1075z " />
<glyph unicode="&#xfb02;" horiz-adv-x="817" d="M35 903h84v-903h172v903h125v172h-125v148q0 90 76 90q46 -1 77 -13v170q-29 10 -53 13.5t-67 3.5q-94 0 -149.5 -62.5t-55.5 -191.5v-158h-84v-172zM545 0h174v1493l-174 -94v-1399z" />
</font>
</defs>
</svg>
